<?xml version="1.0" encoding="utf-8"?>
<!-- Generator: Adobe Illustrator 15.0.2, SVG Export Plug-In . SVG Version: 6.00 Build 0)  -->
<!DOCTYPE svg PUBLIC "-//W3C//DTD SVG 1.1//EN" "http://www.w3.org/Graphics/SVG/1.1/DTD/svg11.dtd">
<svg version="1.1" id="Layer_2" xmlns="http://www.w3.org/2000/svg" xmlns:xlink="http://www.w3.org/1999/xlink" x="0px" y="0px"
	 width="19px" height="34px" viewBox="0 0 19 34" enable-background="new 0 0 19 34" xml:space="preserve">
<g>
	<circle fill="#0180C3" cx="9" cy="10" r="9"/>
	<polygon fill="#0180C3" points="17.269,13.561 0.731,13.561 8.763,32.737 	"/>
	<path fill="#ADCAEA" d="M6.559,15.35c0,0.175-0.043,0.316-0.217,0.321v0.001c-0.094,0.008,0.022,0.012-0.053,0.012
		c-0.592,0-1.009-0.129-1.253-0.389c-0.245-0.261-0.367-0.701-0.367-1.321v-2.117c0-0.335-0.049-0.585-0.147-0.748
		c-0.097-0.163-0.266-0.279-0.507-0.351c-0.122-0.049-0.21-0.167-0.21-0.307c0-0.138,0.084-0.254,0.204-0.305v0
		c0.44-0.117,0.661-0.463,0.661-1.04V6.85c0-0.561,0.126-0.965,0.378-1.214c0.252-0.247,0.667-0.371,1.243-0.371h0.053v0
		c0.181,0.001,0.229,0.146,0.229,0.328c0,0.18-0.048,0.227-0.229,0.227v0.003c-0.434,0.008-0.725,0.081-0.875,0.22
		c-0.15,0.14-0.226,0.409-0.226,0.807v2.302c0,0.26-0.034,0.499-0.102,0.718c-0.079,0.244-0.281,0.448-0.604,0.609
		c0.26,0.139,0.442,0.309,0.547,0.508c0.105,0.201,0.158,0.483,0.158,0.847v2.217c0,0.429,0.072,0.715,0.215,0.857
		c0.143,0.141,0.438,0.213,0.886,0.217v0.004C6.516,15.134,6.559,15.174,6.559,15.35L6.559,15.35z"/>
	<path fill="#ADCAEA" d="M11.343,15.35c0,0.175,0.142,0.316,0.315,0.321v0.001c0.096,0.008-0.021,0.012,0.053,0.012
		c0.592,0,1.011-0.129,1.254-0.389c0.244-0.261,0.366-0.701,0.366-1.321v-2.117c0-0.335,0.05-0.585,0.148-0.748
		c0.096-0.163,0.267-0.279,0.509-0.351c0.122-0.049,0.208-0.167,0.208-0.307c0-0.138-0.084-0.254-0.203-0.305v0
		c-0.441-0.117-0.662-0.463-0.662-1.04V6.85c0-0.561-0.126-0.965-0.378-1.214c-0.252-0.247-0.665-0.371-1.242-0.371h-0.053v0
		c-0.181,0.001-0.325,0.146-0.325,0.328c0,0.18,0.145,0.227,0.325,0.227v0.003c0.433,0.008,0.724,0.081,0.875,0.22
		c0.152,0.14,0.226,0.409,0.226,0.807v2.302c0,0.26,0.034,0.499,0.104,0.718c0.079,0.244,0.279,0.448,0.603,0.609
		c-0.26,0.139-0.442,0.309-0.547,0.508c-0.104,0.201-0.159,0.483-0.159,0.847v2.217c0,0.429-0.071,0.715-0.213,0.857
		c-0.144,0.141-0.438,0.213-0.888,0.217v0.004C11.484,15.134,11.343,15.174,11.343,15.35L11.343,15.35z"/>
</g>
</svg>
