<?xml version="1.0" encoding="utf-8"?>
<!-- Generator: Adobe Illustrator 15.0.2, SVG Export Plug-In . SVG Version: 6.00 Build 0)  -->
<!DOCTYPE svg PUBLIC "-//W3C//DTD SVG 1.1//EN" "http://www.w3.org/Graphics/SVG/1.1/DTD/svg11.dtd">
<svg version="1.1" id="Layer_1" xmlns="http://www.w3.org/2000/svg" xmlns:xlink="http://www.w3.org/1999/xlink" x="0px" y="0px"
	 width="400px" height="400px" viewBox="-403.608 222.267 400 400" enable-background="new -403.608 222.267 400 400"
	 xml:space="preserve">
<rect x="-403.608" y="222.267" fill="#007DC5" width="400" height="400"/>
<path fill="#ADCAEA" d="M-353.479,482.691c0,2.174-0.532,3.925-2.692,3.979v0.033c-1.167,0.095,0.276,0.142-0.657,0.142
	c-7.324,0-12.502-1.609-15.533-4.829c-3.031-3.219-4.548-8.677-4.548-16.373V439.41c0-4.151-0.608-7.242-1.819-9.271
	c-1.204-2.012-3.306-3.457-6.297-4.348c-1.517-0.601-2.597-2.063-2.597-3.793c0-1.707,1.045-3.163,2.526-3.781v-0.008
	c5.46-1.446,8.188-5.738,8.188-12.874v-27.982c0-6.95,1.562-11.966,4.687-15.044c3.126-3.078,8.258-4.617,15.394-4.617h0.657v0.003
	c2.238,0.016,2.839,1.828,2.839,4.068c0,2.239-0.601,2.807-2.839,2.82v0.048c-5.366,0.095-8.98,1.004-10.846,2.729
	c-1.865,1.726-2.796,5.063-2.796,10.006v28.53c0,3.218-0.424,6.18-1.263,8.884c-0.977,3.034-3.474,5.554-7.486,7.558
	c3.218,1.727,5.481,3.826,6.789,6.297c1.304,2.476,1.959,5.975,1.959,10.497v27.48c0,5.318,0.882,8.851,2.657,10.603
	c1.772,1.748,5.434,2.646,10.985,2.693v0.057C-354.011,480.013-353.479,480.519-353.479,482.691L-353.479,482.691z M-53.915,482.691
	c0,2.174,1.74,3.925,3.901,3.979v0.033c1.167,0.095-0.276,0.142,0.657,0.142c7.325,0,12.502-1.609,15.534-4.829
	c3.034-3.219,4.548-8.677,4.548-16.373V439.41c0-4.151,0.607-7.242,1.819-9.271c1.205-2.012,3.306-3.457,6.297-4.348
	c1.519-0.601,2.597-2.063,2.597-3.793c0-1.707-1.044-3.163-2.526-3.781v-0.008c-5.458-1.446-8.188-5.738-8.188-12.874v-27.982
	c0-6.95-1.562-11.966-4.688-15.044c-3.124-3.078-8.256-4.617-15.395-4.617h-0.657v0.003c-2.236,0.016-4.049,1.828-4.049,4.068
	c0,2.239,1.812,2.807,4.049,2.82v0.048c5.368,0.095,8.981,1.004,10.846,2.729c1.867,1.726,2.799,5.063,2.799,10.006v28.53
	c0,3.218,0.422,6.18,1.259,8.884c0.979,3.034,3.476,5.554,7.487,7.558c-3.217,1.727-5.478,3.826-6.787,6.297
	c-1.302,2.476-1.957,5.975-1.957,10.497v27.48c0,5.318-0.886,8.851-2.658,10.603c-1.774,1.748-5.435,2.646-10.987,2.693v0.057
	C-52.174,480.013-53.915,480.519-53.915,482.691L-53.915,482.691z"/>
<path fill="#FFFFFF" d="M-60.241,393.564c0,4.274-1.368,7.874-4.102,10.805c-2.735,2.93-6.107,4.394-10.118,4.394
	c-1.641,0-3.248-0.29-4.814-0.867c-1.718-0.616-3.267-1.671-4.647-3.164v0.908h-0.025c-0.008,1.728-1.406,3.123-3.137,3.123
	c-1.728,0-3.128-1.396-3.133-3.123h-0.002v-33.936c0-1.848,1.498-3.345,3.347-3.345c1.844,0,3.343,1.497,3.343,3.345v10.272
	c0.377-0.316,0.833-0.681,1.372-1.09c2.186-1.548,4.712-2.323,7.586-2.323c4.031,0,7.426,1.439,10.188,4.324
	C-61.622,385.771-60.241,389.33-60.241,393.564L-60.241,393.564z M-67.293,393.62c0-2.369-0.794-4.354-2.381-5.961
	c-1.586-1.605-3.548-2.408-5.875-2.408c-2.446,0-4.433,0.8-5.965,2.396c-1.531,1.593-2.293,3.66-2.293,6.199
	c0,2.331,0.794,4.282,2.379,5.85c1.585,1.565,3.547,2.349,5.879,2.349c2.35,0,4.311-0.808,5.888-2.42
	C-68.082,398.009-67.293,396.01-67.293,393.62L-67.293,393.62z M-104.761,378.662c-1.883,0-3.41,1.498-3.41,3.346v10.408
	c0,6.699-2.596,10.05-7.792,10.05c-2.782,0-4.611-0.942-5.482-2.827c-0.515-1.084-0.771-2.303-0.771-3.666
	c-0.037-0.41-0.059-1.597-0.059-3.556v-9.86c0.031-0.18,0.059-0.36,0.059-0.549c0-1.847-1.529-3.346-3.411-3.346
	c-1.887,0-3.413,1.498-3.413,3.346l0.002,0.006v10.403c0,3.006,0.025,4.871,0.084,5.599c0.174,2.109,0.647,3.891,1.428,5.347
	c0.877,1.641,2.251,2.951,4.126,3.932c1.874,0.98,3.963,1.47,6.269,1.47c3.48,0,6.155-1.018,8.024-3.051
	c0.34-0.372,0.808-0.94,1.396-1.706v1.299l-0.033,0.326c0,1.729,1.434,3.133,3.199,3.133c1.763,0,3.19-1.396,3.197-3.122h0.006
	v-23.633C-101.347,380.16-102.873,378.662-104.761,378.662L-104.761,378.662z M-139.219,401.639h-5.07v-28.894l-0.01-0.01
	l0.014-0.136c0-1.684-1.366-3.05-3.05-3.05h-8.749c-1.686,0-3.049,1.366-3.049,3.05c0,1.687,1.366,3.051,3.049,3.051v0.028h5.167
	v25.96h-5.167c-1.686,0-3.049,1.368-3.049,3.051c0,1.686,1.366,3.049,3.049,3.049h16.865c1.688,0,3.053-1.363,3.053-3.049
	C-136.168,403.007-137.534,401.639-139.219,401.639L-139.219,401.639z M-172.536,387.469c1.214,1.264,3.989,1.264,5.297,0
	c1.309-1.266,1.309-3.316,0-4.583c-6.125-5.91-16.084-5.91-22.206,0c-6.12,5.913-6.12,15.528,0.002,21.441
	c3.06,2.956,7.079,4.434,11.101,4.434s8.041-1.479,11.103-4.434c1.309-1.265,1.309-3.316,0-4.582c-1.311-1.265-4.081-1.266-5.297,0
	c-3.251,3.385-8.543,3.385-11.798,0c-1.628-1.692-2.441-3.916-2.441-6.139s0.813-4.447,2.441-6.14
	C-181.082,384.086-175.79,384.086-172.536,387.469z M-305.722,404.128c-2.991-2.968-4.486-6.531-4.486-10.692
	c0-4.159,1.495-7.711,4.486-10.65c2.991-2.938,6.602-4.407,10.832-4.407c4.229,0,7.847,1.474,10.857,4.424
	c3.01,2.947,4.514,6.493,4.514,10.634c0,4.16-1.499,7.725-4.501,10.692c-3,2.967-6.625,4.449-10.87,4.449
	C-299.12,408.578-302.731,407.096-305.722,404.128z M-303.621,393.493c0,2.425,0.851,4.491,2.551,6.2
	c1.701,1.711,3.762,2.565,6.179,2.565c2.437,0,4.5-0.854,6.192-2.565c1.692-1.709,2.539-3.794,2.539-6.258
	c0-2.422-0.846-4.488-2.539-6.199c-1.691-1.71-3.755-2.564-6.192-2.564c-2.417,0-4.478,0.858-6.179,2.578
	C-302.771,388.971-303.621,391.051-303.621,393.493z M-226.173,390.355h15.62c-0.964-3.434-3.694-5.285-7.876-5.285
	C-222.25,385.07-224.937,386.921-226.173,390.355z M-242.052,371.86v33.359c0,1.73-1.384,3.134-3.095,3.134
	c-1.708,0-3.099-1.403-3.099-3.134v-0.004h-0.027v-0.665c-0.331,0.429-0.746,0.857-1.243,1.285c-2.139,1.83-4.839,2.743-8.103,2.743
	c-3.927,0-7.239-1.464-9.94-4.393c-2.7-2.928-4.05-6.532-4.05-10.802c0-4.257,1.354-7.82,4.063-10.692
	c2.71-2.873,6.075-4.31,10.093-4.31c1.474,0,2.856,0.204,4.149,0.615c1.548,0.505,3.114,1.438,4.7,2.799v-9.935
	c0-1.832,1.468-3.316,3.277-3.316C-243.518,368.542-242.052,370.027-242.052,371.86L-242.052,371.86z M-248.382,393.492
	c0-2.48-0.757-4.507-2.268-6.073c-1.511-1.567-3.476-2.349-5.89-2.349c-2.287,0-4.208,0.81-5.768,2.434
	c-1.557,1.623-2.336,3.638-2.336,6.045c0,2.334,0.783,4.301,2.351,5.905c1.565,1.605,3.484,2.407,5.751,2.407
	c2.341,0,4.285-0.798,5.834-2.395C-249.157,397.874-248.382,395.882-248.382,393.492z M-324.696,387.286
	c1.205,1.266,3.949,1.266,5.246,0c1.295-1.267,1.295-3.317,0-4.581c-6.062-5.911-15.922-5.911-21.981,0
	c-6.06,5.909-6.06,15.527,0,21.439c3.03,2.957,7.008,4.433,10.99,4.433c3.98,0,7.96-1.476,10.992-4.433
	c1.295-1.266,1.295-3.317,0-4.582c-1.297-1.264-4.041-1.267-5.246,0c-3.22,3.383-8.46,3.384-11.68,0
	c-1.61-1.691-2.415-3.914-2.415-6.139c0-2.224,0.805-4.447,2.415-6.138C-333.156,383.903-327.916,383.903-324.696,387.286z
	 M-205.462,404.317c-3.095,2.842-7.07,4.261-11.044,4.261l-1.43-0.004l-0.038,0.004c-4.44,0-8.103-1.413-10.985-4.24
	c-2.882-2.827-4.324-6.404-4.324-10.733c0-4.234,1.492-7.832,4.478-10.789c2.984-2.958,6.514-4.437,10.68-4.437
	c4.258,0,7.786,1.494,10.588,4.479c2.28,2.429,3.634,5.291,4.055,8.747l-0.023,0.069l0.025,0.277c0,2.166-1.713,3.922-3.824,3.922
	h-18.926c0.375,1.811,1.347,3.328,2.925,4.393c1.576,1.062,3.521,1.595,5.834,1.595l1.07-0.002c1.959-0.049,4.18-0.782,5.784-2.202
	l-0.004,0.006c1.248-1.312,3.714-1.312,5.061,0c1.347,1.312,1.347,3.438,0,4.75L-205.462,404.317z M-291.505,462.28
	c-2.99-2.969-4.485-6.529-4.485-10.694c0-4.158,1.495-7.71,4.485-10.647c2.993-2.938,6.601-4.408,10.83-4.408
	s7.846,1.474,10.856,4.421c3.009,2.948,4.514,6.493,4.514,10.635c0,4.16-1.5,7.725-4.5,10.692s-6.625,4.449-10.871,4.449
	C-284.905,466.728-288.514,465.246-291.505,462.28z M-289.406,451.645c0,2.425,0.852,4.49,2.552,6.197
	c1.7,1.711,3.76,2.563,6.178,2.563c2.436,0,4.5-0.853,6.192-2.563c1.69-1.707,2.538-3.795,2.538-6.257
	c0-2.422-0.846-4.489-2.538-6.2c-1.692-1.708-3.756-2.562-6.192-2.562c-2.417,0-4.478,0.858-6.178,2.579
	C-288.554,447.121-289.406,449.204-289.406,451.645L-289.406,451.645z M-174.641,430.421v33.361c0,1.729-1.387,3.131-3.099,3.131
	c-1.708,0-3.096-1.402-3.096-3.131v-0.005h-0.027v-0.666c-0.331,0.428-0.747,0.857-1.243,1.285
	c-2.142,1.829-4.841,2.743-8.102,2.743c-3.927,0-7.24-1.462-9.941-4.395c-2.702-2.928-4.053-6.531-4.053-10.804
	c0-4.253,1.356-7.818,4.065-10.691c2.708-2.873,6.072-4.31,10.092-4.31c1.477,0,2.859,0.205,4.149,0.616
	c1.548,0.503,3.114,1.435,4.7,2.795v-9.934c0.002-1.831,1.471-3.313,3.277-3.313C-176.108,427.107-174.641,428.592-174.641,430.421
	L-174.641,430.421z M-180.975,452.057c0-2.484-0.756-4.508-2.266-6.074c-1.512-1.566-3.476-2.351-5.89-2.351
	c-2.288,0-4.21,0.812-5.767,2.438c-1.557,1.623-2.338,3.637-2.338,6.044c0,2.332,0.785,4.301,2.351,5.905
	c1.566,1.606,3.483,2.407,5.751,2.407c2.341,0,4.286-0.799,5.834-2.394C-181.746,456.434-180.975,454.447-180.975,452.057
	L-180.975,452.057z M-211.653,459.608h-5.068v-28.896l-0.01-0.01l0.015-0.135c0-1.685-1.366-3.05-3.053-3.05h-8.748
	c-1.687,0-3.05,1.367-3.05,3.05c0,1.686,1.366,3.051,3.05,3.051v0.025h5.163v25.964h-5.163c-1.687,0-3.05,1.365-3.05,3.049
	s1.366,3.05,3.05,3.05h16.866c1.687,0,3.051-1.368,3.051-3.05C-208.603,460.974-209.968,459.608-211.653,459.608z M-301.473,439.927
	c0-1.835-1.487-3.32-3.321-3.32c-1.438,0-2.652,0.924-3.114,2.204l-0.014,0.004l-6.833,19.124l-5.396-18.383l-0.017,0.002
	c-0.611-1.715-2.234-2.951-4.159-2.951c-1.923,0-3.548,1.236-4.161,2.951l-0.018-0.002l-5.396,18.383l-6.834-19.124l-0.016-0.004
	c-0.459-1.284-1.673-2.204-3.113-2.204c-1.833,0-3.32,1.486-3.32,3.32c0,0.458,0.092,0.892,0.261,1.289l-0.003,0.005l8.731,22.658
	h0.001c0.715,1.673,2.377,2.85,4.309,2.85c1.941,0,3.606-1.184,4.316-2.863l5.241-18.684l5.241,18.684
	c0.71,1.682,2.376,2.863,4.314,2.863c1.934,0,3.596-1.179,4.31-2.85h0.001l8.731-22.658l-0.005-0.005
	C-301.568,440.819-301.473,440.385-301.473,439.927z M-235.419,439.75c0-1.663-1.169-3.135-3.23-3.135
	c-3.251,0-4.914,0.882-6.615,2.249c-1.906,1.536-3.411,3.755-4.192,5.674v-4.715h-0.009c-0.057-1.783-1.515-3.218-3.313-3.218
	c-1.797,0-3.257,1.436-3.312,3.218h-0.012v23.386l-0.019,0.187c0,1.841,1.496,3.334,3.334,3.334c1.799,0,3.261-1.434,3.321-3.218
	h0.011v-5.222c0-3.28,0.295-5.774,0.884-7.487c0.587-1.708,1.544-3.203,2.867-4.479c1.322-1.28,3.398-3.427,7.146-3.427l0.008-0.002
	C-236.819,442.886-235.419,441.481-235.419,439.75L-235.419,439.75z M-149.221,462.28c-2.991-2.969-4.485-6.529-4.485-10.694
	c0-4.158,1.494-7.71,4.485-10.647c2.994-2.938,6.602-4.408,10.832-4.408s7.845,1.474,10.855,4.421
	c3.01,2.948,4.516,6.493,4.516,10.635c0,4.16-1.5,7.725-4.501,10.692c-3,2.968-6.626,4.449-10.869,4.449
	C-142.619,466.728-146.228,465.246-149.221,462.28z M-147.123,451.645c0,2.425,0.853,4.49,2.554,6.197
	c1.698,1.711,3.761,2.563,6.178,2.563c2.436,0,4.499-0.853,6.189-2.563c1.692-1.707,2.539-3.795,2.539-6.257
	c0-2.422-0.846-4.489-2.539-6.2c-1.691-1.708-3.755-2.562-6.189-2.562c-2.417,0-4.48,0.858-6.179,2.579
	C-146.27,447.121-147.123,449.204-147.123,451.645L-147.123,451.645z M-94.343,439.75c0-1.663-1.172-3.135-3.232-3.135
	c-3.25,0-4.914,0.882-6.614,2.249c-1.907,1.536-3.412,3.755-4.19,5.674v-4.715h-0.012c-0.057-1.783-1.515-3.218-3.313-3.218
	c-1.797,0-3.257,1.436-3.312,3.218h-0.013v23.386l-0.019,0.187c0,1.841,1.492,3.334,3.334,3.334c1.799,0,3.259-1.434,3.322-3.218
	h0.012v-5.222c0-3.28,0.293-5.774,0.882-7.487c0.588-1.708,1.545-3.203,2.866-4.479c1.323-1.28,3.4-3.427,7.148-3.427l0.007-0.002
	C-95.745,442.886-94.343,441.481-94.343,439.75L-94.343,439.75z M-88.278,468.168c1.219-1.22,3.207-1.208,4.442,0.025
	c0,0,2.29,2.443,6.195,2.443c9.194,0,8.615-9.021,8.615-9.021c-1.588,2.165-4.104,4.797-9.265,4.797
	c-4.019,0-7.384-1.437-10.094-4.308c-2.708-2.873-4.064-6.15-4.064-10.406c0-4.27,1.352-7.875,4.052-10.803
	c2.701-2.93,6.015-4.393,9.944-4.393c3.257,0,5.961,0.914,8.099,2.743c0.496,0.43,0.912,0.857,1.243,1.284v-0.666h0.028v-0.005
	c0-1.73,1.387-3.135,3.095-3.135c1.713,0,3.098,1.404,3.098,3.135v18.759c0,7.349-1.596,11.595-4.537,14.535
	c-2.503,2.506-6.938,3.597-10.206,3.597c-7.11,0-10.621-4.138-10.621-4.138C-89.488,471.378-89.5,469.387-88.278,468.168
	L-88.278,468.168z M-71.542,445.616c-1.55-1.596-3.495-2.395-5.836-2.395c-2.266,0-4.185,0.803-5.751,2.407
	c-1.567,1.604-2.351,3.573-2.351,5.907c0,2.408,0.781,4.133,2.34,5.756c1.557,1.624,3.478,2.437,5.767,2.437
	c2.414,0,4.377-0.784,5.89-2.349c1.51-1.569,2.266-3.305,2.266-5.787C-69.222,449.201-69.994,447.209-71.542,445.616
	L-71.542,445.616z M-162.471,458.723c-2.325,0-4.209,1.887-4.209,4.209c0,2.325,1.885,4.209,4.209,4.209
	c2.329,0,4.209-1.884,4.209-4.209S-160.143,458.723-162.471,458.723z"/>
</svg>
