<?xml version="1.0" encoding="utf-8"?>
<!-- Generator: Adobe Illustrator 15.0.2, SVG Export Plug-In . SVG Version: 6.00 Build 0)  -->
<!DOCTYPE svg PUBLIC "-//W3C//DTD SVG 1.1//EN" "http://www.w3.org/Graphics/SVG/1.1/DTD/svg11.dtd">
<svg version="1.1" id="Layer_1" xmlns="http://www.w3.org/2000/svg" xmlns:xlink="http://www.w3.org/1999/xlink" x="0px" y="0px"
	 width="394px" height="246px" viewBox="21.445 598.14 394 246" enable-background="new 21.445 598.14 394 246"
	 xml:space="preserve">
<path fill="#007DC5" d="M292.461,599.14c-27.896,0-53.594,9.387-74.125,25.164c-20.531-15.777-46.23-25.164-74.125-25.164
	c-67.249,0-121.767,54.518-121.767,121.768c0,67.248,54.518,121.766,121.767,121.766c27.895,0,53.594-9.385,74.125-25.162
	c20.531,15.777,46.228,25.162,74.125,25.162c67.25,0,121.768-54.518,121.768-121.766C414.229,653.658,359.711,599.14,292.461,599.14
	z"/>
<path fill="#ADCAEA" d="M94.545,770.853c0,1.797-0.439,3.244-2.225,3.289v0.027c-0.965,0.078,0.228,0.117-0.543,0.117
	c-6.054,0-10.334-1.33-12.839-3.992c-2.506-2.66-3.76-7.172-3.76-13.533v-21.684c0-3.432-0.503-5.986-1.504-7.664
	c-0.995-1.662-2.732-2.857-5.205-3.594c-1.254-0.496-2.146-1.705-2.146-3.134c0-1.411,0.864-2.614,2.088-3.126v-0.006
	c4.513-1.195,6.768-4.743,6.768-10.643v-23.131c0-5.744,1.291-9.89,3.874-12.435c2.584-2.544,6.826-3.817,12.725-3.817h0.543v0.004
	c1.849,0.013,2.346,1.511,2.346,3.362c0,1.851-0.497,2.32-2.346,2.331v0.04c-4.436,0.078-7.423,0.83-8.965,2.255
	c-1.542,1.426-2.312,4.186-2.312,8.271v23.582c0,2.66-0.35,5.109-1.044,7.344c-0.807,2.508-2.871,4.591-6.187,6.247
	c2.66,1.427,4.53,3.161,5.611,5.204c1.078,2.045,1.619,4.938,1.619,8.676v22.715c0,4.396,0.73,7.316,2.197,8.764
	c1.465,1.445,4.491,2.188,9.08,2.227v0.047C94.105,768.64,94.545,769.056,94.545,770.853z M342.161,770.853
	c0,1.797,1.439,3.244,3.225,3.289v0.027c0.965,0.078-0.229,0.117,0.543,0.117c6.055,0,10.334-1.33,12.84-3.992
	c2.508-2.66,3.76-7.172,3.76-13.533v-21.684c0-3.432,0.502-5.986,1.504-7.664c0.996-1.662,2.732-2.857,5.205-3.594
	c1.256-0.496,2.146-1.705,2.146-3.134c0-1.411-0.863-2.614-2.088-3.126v-0.006c-4.512-1.195-6.768-4.743-6.768-10.643v-23.131
	c0-5.744-1.291-9.89-3.875-12.435c-2.582-2.544-6.824-3.817-12.725-3.817h-0.543v0.004c-1.848,0.013-3.346,1.511-3.346,3.362
	c0,1.851,1.498,2.32,3.346,2.331v0.04c4.436,0.078,7.424,0.83,8.965,2.255c1.543,1.426,2.314,4.186,2.314,8.271v23.582
	c0,2.66,0.348,5.109,1.041,7.344c0.809,2.508,2.873,4.591,6.188,6.247c-2.66,1.427-4.529,3.161-5.611,5.204
	c-1.076,2.045-1.617,4.938-1.617,8.676v22.715c0,4.396-0.732,7.316-2.197,8.764c-1.467,1.445-4.492,2.188-9.082,2.227v0.047
	C343.6,768.64,342.161,769.056,342.161,770.853z"/>
<path fill="#FFFFFF" d="M336.932,697.182c0,3.533-1.131,6.509-3.391,8.931s-5.047,3.631-8.363,3.631
	c-1.357,0-2.684-0.238-3.979-0.717c-1.42-0.508-2.701-1.38-3.842-2.615v0.752h-0.021c-0.006,1.428-1.162,2.58-2.592,2.58
	c-1.428,0-2.586-1.152-2.59-2.58h-0.002v-28.051c0-1.527,1.238-2.765,2.766-2.765c1.525,0,2.764,1.237,2.764,2.765l0,0v8.491
	c0.311-0.262,0.688-0.563,1.133-0.901c1.807-1.279,3.896-1.92,6.271-1.92c3.332,0,6.139,1.189,8.422,3.574
	C335.79,690.74,336.932,693.682,336.932,697.182z M331.102,697.228c0-1.958-0.656-3.6-1.967-4.927
	c-1.312-1.327-2.932-1.991-4.857-1.991c-2.021,0-3.664,0.661-4.93,1.98c-1.266,1.316-1.896,3.025-1.896,5.123
	c0,1.928,0.656,3.541,1.967,4.836c1.311,1.293,2.932,1.941,4.859,1.941c1.943,0,3.564-0.667,4.867-2
	C330.45,700.857,331.102,699.205,331.102,697.228z M300.131,684.863c-1.557,0-2.818,1.239-2.818,2.767l0,0v8.604
	c0,5.536-2.146,8.305-6.441,8.305c-2.299,0-3.811-0.777-4.531-2.336c-0.426-0.896-0.637-1.903-0.637-3.03
	c-0.031-0.339-0.049-1.319-0.049-2.938v-8.15c0.025-0.148,0.049-0.299,0.049-0.454c0-1.526-1.264-2.767-2.82-2.767
	c-1.559,0-2.822,1.239-2.822,2.767c0,0.002,0.002,0.003,0.002,0.005v8.6c0,2.484,0.021,4.026,0.07,4.627
	c0.143,1.744,0.535,3.217,1.18,4.42c0.725,1.356,1.861,2.439,3.41,3.25s3.277,1.215,5.182,1.215c2.877,0,5.088-0.842,6.633-2.521
	c0.281-0.309,0.668-0.777,1.154-1.41v1.073c-0.008,0.089-0.027,0.177-0.027,0.269c0,1.43,1.186,2.59,2.645,2.59
	c1.457,0,2.637-1.152,2.643-2.58h0.004v-19.534C302.954,686.102,301.692,684.863,300.131,684.863z M271.649,703.857
	c-0.035,0-4.191,0-4.191,0v-23.883l-0.008-0.008c0.002-0.039,0.012-0.074,0.012-0.112c0-1.392-1.129-2.522-2.521-2.522h-7.232
	c-1.393,0-2.521,1.131-2.521,2.522c0,1.394,1.129,2.521,2.521,2.521v0.024h4.27v21.458c0,0-4.234,0-4.27,0
	c-1.393,0-2.521,1.131-2.521,2.521c0,1.394,1.129,2.521,2.521,2.521h13.941c1.395,0,2.523-1.127,2.523-2.521
	C274.17,704.988,273.042,703.857,271.649,703.857z M244.11,692.144c1.004,1.045,3.297,1.045,4.379,0
	c1.082-1.046,1.082-2.742,0-3.788c-5.062-4.885-13.295-4.885-18.355,0c-5.059,4.888-5.059,12.837,0.002,17.724
	c2.529,2.443,5.852,3.664,9.176,3.664s6.646-1.222,9.178-3.664c1.082-1.047,1.082-2.741,0-3.789c-1.084-1.045-3.373-1.045-4.379,0
	c-2.688,2.799-7.062,2.799-9.752,0c-1.346-1.397-2.018-3.235-2.018-5.073c0-1.837,0.672-3.677,2.018-5.074
	C237.045,689.348,241.42,689.348,244.11,692.144z M134.021,705.914c-2.473-2.452-3.708-5.397-3.708-8.838
	c0-3.438,1.235-6.373,3.708-8.803c2.473-2.428,5.457-3.643,8.953-3.643c3.495,0,6.486,1.218,8.975,3.656
	c2.488,2.437,3.731,5.367,3.731,8.789c0,3.439-1.239,6.386-3.721,8.838c-2.479,2.453-5.476,3.679-8.985,3.679
	C139.478,709.592,136.493,708.367,134.021,705.914z M135.757,697.123c0,2.004,0.703,3.713,2.109,5.125
	c1.406,1.414,3.109,2.121,5.107,2.121c2.014,0,3.72-0.707,5.118-2.121c1.399-1.412,2.099-3.137,2.099-5.172
	c0-2.002-0.699-3.711-2.099-5.125c-1.398-1.414-3.104-2.119-5.118-2.119c-1.998,0-3.701,0.709-5.107,2.131
	C136.459,693.386,135.757,695.105,135.757,697.123z M199.774,694.529h12.911c-0.797-2.836-3.054-4.369-6.511-4.369
	C203.017,690.16,200.796,691.693,199.774,694.529z M186.649,679.242L186.649,679.242v27.571l0,0c0,0.001,0,0.002,0,0.003
	c0,1.43-1.145,2.59-2.559,2.59c-1.412,0-2.561-1.16-2.561-2.59c0-0.001,0-0.002,0-0.003h-0.023v-0.55
	c-0.273,0.354-0.616,0.709-1.027,1.062c-1.768,1.513-4,2.268-6.697,2.268c-3.246,0-5.984-1.21-8.217-3.631
	c-2.232-2.42-3.348-5.399-3.348-8.93c0-3.518,1.119-6.463,3.359-8.838c2.24-2.375,5.021-3.562,8.342-3.562
	c1.219,0,2.362,0.169,3.43,0.509c1.279,0.417,2.574,1.188,3.885,2.312v-8.211l0,0c0-1.515,1.213-2.742,2.709-2.742
	C185.438,676.5,186.649,677.727,186.649,679.242z M181.417,697.123c0-2.051-0.626-3.726-1.875-5.021s-2.873-1.942-4.868-1.942
	c-1.89,0-3.478,0.67-4.767,2.013c-1.287,1.342-1.931,3.007-1.931,4.997c0,1.929,0.647,3.555,1.943,4.881
	c1.294,1.327,2.88,1.99,4.754,1.99c1.936,0,3.542-0.66,4.823-1.979C180.777,700.744,181.417,699.098,181.417,697.123z
	 M118.337,691.992c0.996,1.047,3.264,1.047,4.336,0c1.071-1.047,1.071-2.742,0-3.787c-5.01-4.885-13.161-4.885-18.17,0
	c-5.008,4.886-5.008,12.836,0,17.723c2.505,2.443,5.793,3.664,9.084,3.664c3.29,0,6.58-1.221,9.086-3.664
	c1.071-1.046,1.071-2.742,0-3.787c-1.072-1.045-3.34-1.047-4.336,0c-2.662,2.796-6.993,2.797-9.654,0
	c-1.331-1.398-1.996-3.236-1.996-5.074s0.665-3.676,1.996-5.074C111.344,689.197,115.675,689.197,118.337,691.992z M216.894,706.07
	c-2.559,2.35-5.844,3.522-9.129,3.522c-0.025,0-0.928-0.003-1.182-0.003c-0.011,0-0.021,0.003-0.031,0.003
	c-3.67,0-6.697-1.168-9.08-3.505c-2.383-2.338-3.574-5.295-3.574-8.872c0-3.5,1.233-6.474,3.701-8.918
	c2.467-2.445,5.385-3.667,8.828-3.667c3.52,0,6.436,1.234,8.752,3.701c1.885,2.009,3.004,4.375,3.352,7.231
	c0.004,0.017-0.014,0.039-0.02,0.058c0.006,0.076,0.021,0.148,0.021,0.229c0,1.791-1.416,3.242-3.161,3.242h-15.644
	c0.31,1.496,1.113,2.751,2.418,3.631c1.303,0.878,2.91,1.318,4.822,1.318c0.059,0,0.826,0,0.885-0.002
	c1.619-0.041,3.455-0.646,4.781-1.82l-0.004,0.005c1.032-1.085,3.071-1.085,4.184,0c1.113,1.084,1.113,2.842,0,3.927L216.894,706.07
	z M145.771,753.982c-2.472-2.455-3.707-5.398-3.707-8.84c0-3.438,1.235-6.373,3.707-8.801c2.474-2.43,5.456-3.645,8.952-3.645
	s6.485,1.219,8.974,3.654c2.487,2.438,3.731,5.367,3.731,8.791c0,3.439-1.24,6.385-3.72,8.838c-2.479,2.453-5.476,3.678-8.985,3.678
	C151.228,757.658,148.245,756.433,145.771,753.982z M147.507,745.191c0,2.004,0.704,3.711,2.11,5.123
	c1.405,1.414,3.108,2.119,5.106,2.119c2.014,0,3.72-0.705,5.118-2.119c1.398-1.412,2.098-3.137,2.098-5.172
	c0-2.002-0.699-3.711-2.098-5.125c-1.398-1.412-3.104-2.117-5.118-2.117c-1.998,0-3.701,0.709-5.106,2.131
	C148.21,741.451,147.507,743.171,147.507,745.191z M242.37,727.648L242.37,727.648v27.572l0,0c0,0.002,0,0.002,0,0.004
	c0,1.428-1.146,2.588-2.561,2.588c-1.412,0-2.559-1.16-2.559-2.588c0-0.002,0-0.002,0-0.004h-0.023v-0.551
	c-0.273,0.354-0.617,0.709-1.027,1.062c-1.77,1.512-4.002,2.268-6.697,2.268c-3.246,0-5.984-1.209-8.217-3.633
	c-2.233-2.42-3.35-5.398-3.35-8.93c0-3.516,1.121-6.463,3.36-8.838c2.238-2.375,5.02-3.562,8.342-3.562
	c1.221,0,2.363,0.17,3.43,0.51c1.279,0.416,2.574,1.186,3.885,2.311v-8.211l0,0c0.002-1.514,1.215-2.74,2.709-2.74
	C241.157,724.908,242.37,726.134,242.37,727.648z M237.135,745.531c0-2.053-0.625-3.725-1.873-5.021
	c-1.25-1.295-2.873-1.943-4.869-1.943c-1.891,0-3.479,0.672-4.766,2.016c-1.287,1.342-1.932,3.006-1.932,4.996
	c0,1.928,0.648,3.555,1.943,4.881c1.295,1.328,2.879,1.99,4.754,1.99c1.936,0,3.543-0.66,4.822-1.979
	C236.497,749.15,237.135,747.505,237.135,745.531z M211.776,751.773c-0.035,0-4.19,0-4.19,0v-23.885l-0.008-0.008
	c0.001-0.039,0.012-0.072,0.012-0.111c0-1.393-1.129-2.52-2.523-2.52h-7.231c-1.394,0-2.521,1.129-2.521,2.52
	c0,1.393,1.129,2.521,2.521,2.521v0.021h4.268v21.461c0,0-4.231,0-4.268,0c-1.394,0-2.521,1.129-2.521,2.521
	s1.129,2.521,2.521,2.521h13.942c1.394,0,2.521-1.131,2.521-2.521C214.298,752.902,213.169,751.773,211.776,751.773z
	 M137.533,735.503c0-1.516-1.23-2.744-2.745-2.744c-1.189,0-2.193,0.764-2.575,1.822l-0.011,0.004l-5.649,15.807l-4.46-15.195
	l-0.013,0.002c-0.505-1.418-1.847-2.439-3.438-2.439c-1.59,0-2.933,1.021-3.439,2.439l-0.015-0.002l-4.46,15.195l-5.649-15.807
	l-0.013-0.004c-0.38-1.061-1.383-1.822-2.573-1.822c-1.515,0-2.745,1.229-2.745,2.744c0,0.379,0.077,0.738,0.216,1.066l-0.003,0.004
	l7.217,18.73h0.001c0.591,1.383,1.965,2.355,3.562,2.355c1.604,0,2.98-0.979,3.567-2.367l4.332-15.443l4.332,15.443
	c0.587,1.391,1.964,2.367,3.567,2.367c1.598,0,2.972-0.975,3.562-2.355h0.001l7.217-18.73l-0.004-0.004
	C137.455,736.242,137.533,735.882,137.533,735.503z M192.132,735.359c0-1.375-0.967-2.592-2.67-2.592
	c-2.687,0-4.061,0.729-5.467,1.859c-1.576,1.27-2.82,3.104-3.465,4.689v-3.896h-0.008c-0.047-1.475-1.252-2.66-2.738-2.66
	s-2.693,1.186-2.739,2.66h-0.009v19.33c-0.004,0.053-0.016,0.102-0.016,0.154c0,1.521,1.236,2.756,2.756,2.756
	c1.487,0,2.695-1.186,2.745-2.66h0.009v-4.316c0-2.711,0.244-4.773,0.73-6.189c0.486-1.412,1.277-2.648,2.37-3.703
	c1.093-1.057,2.809-2.832,5.908-2.832l0.006-0.002C190.975,737.951,192.132,736.789,192.132,735.359z M263.381,753.982
	c-2.473-2.455-3.707-5.398-3.707-8.84c0-3.438,1.234-6.373,3.707-8.801c2.475-2.43,5.457-3.645,8.953-3.645s6.484,1.219,8.973,3.654
	c2.488,2.438,3.732,5.367,3.732,8.791c0,3.439-1.24,6.385-3.721,8.838c-2.479,2.453-5.477,3.678-8.984,3.678
	C268.838,757.658,265.856,756.433,263.381,753.982z M265.116,745.191c0,2.004,0.705,3.711,2.111,5.123
	c1.404,1.414,3.109,2.119,5.107,2.119c2.014,0,3.719-0.705,5.117-2.119c1.398-1.412,2.098-3.137,2.098-5.172
	c0-2.002-0.699-3.711-2.098-5.125c-1.398-1.412-3.104-2.117-5.117-2.117c-1.998,0-3.703,0.709-5.107,2.131
	C265.821,741.451,265.116,743.171,265.116,745.191z M308.743,735.359c0-1.375-0.969-2.592-2.672-2.592
	c-2.686,0-4.061,0.729-5.467,1.859c-1.576,1.27-2.82,3.104-3.463,4.689v-3.896h-0.01c-0.047-1.475-1.252-2.66-2.738-2.66
	s-2.693,1.186-2.738,2.66h-0.01v19.33c-0.002,0.053-0.016,0.102-0.016,0.154c0,1.521,1.234,2.756,2.756,2.756
	c1.488,0,2.695-1.186,2.746-2.66h0.01v-4.316c0-2.711,0.242-4.773,0.729-6.189c0.486-1.412,1.277-2.648,2.369-3.703
	c1.094-1.057,2.811-2.832,5.908-2.832l0.006-0.002C307.584,737.951,308.743,736.789,308.743,735.359z M313.756,758.849
	c1.008-1.008,2.65-0.998,3.672,0.021c0,0,1.893,2.02,5.121,2.02c7.6,0,7.121-7.457,7.121-7.457
	c-1.312,1.789-3.393,3.965-7.658,3.965c-3.322,0-6.104-1.188-8.344-3.561c-2.238-2.375-3.359-5.084-3.359-8.602
	c0-3.529,1.117-6.51,3.35-8.93c2.232-2.422,4.971-3.631,8.219-3.631c2.693,0,4.928,0.756,6.695,2.268
	c0.41,0.355,0.754,0.709,1.027,1.062v-0.551h0.023c0-0.002,0-0.002,0-0.004c0-1.43,1.146-2.59,2.559-2.59
	c1.416,0,2.561,1.16,2.561,2.59c0,0.002,0,0.002,0,0.004l0,0v15.502c0,6.074-1.32,9.584-3.75,12.014
	c-2.07,2.072-5.736,2.973-8.436,2.973c-5.877,0-8.779-3.42-8.779-3.42C312.756,761.501,312.747,759.857,313.756,758.849z
	 M327.59,740.207c-1.281-1.32-2.889-1.98-4.824-1.98c-1.873,0-3.459,0.664-4.754,1.99s-1.943,2.953-1.943,4.883
	c0,1.99,0.645,3.416,1.934,4.758c1.287,1.342,2.875,2.014,4.766,2.014c1.996,0,3.619-0.648,4.869-1.941
	c1.248-1.297,1.873-2.732,1.873-4.783C329.508,743.169,328.87,741.525,327.59,740.207z M252.43,751.041
	c-1.922,0-3.479,1.559-3.479,3.48S250.508,758,252.43,758c1.924,0,3.479-1.557,3.479-3.479S254.354,751.041,252.43,751.041z"/>
</svg>
