<?xml version="1.0" encoding="utf-8"?>
<!-- Generator: Adobe Illustrator 16.0.0, SVG Export Plug-In . SVG Version: 6.00 Build 0)  -->
<!DOCTYPE svg PUBLIC "-//W3C//DTD SVG 1.1//EN" "http://www.w3.org/Graphics/SVG/1.1/DTD/svg11.dtd">
<svg version="1.1" id="Layer_1" xmlns="http://www.w3.org/2000/svg" xmlns:xlink="http://www.w3.org/1999/xlink" x="0px" y="0px"
	 width="260px" height="162.335px" viewBox="67 41.833 260 162.335" enable-background="new 67 41.833 260 162.335"
	 xml:space="preserve">
<path fill="#007DC5" d="M246.535,42.192c-18.513,0-35.566,6.23-49.191,16.699c-13.625-10.469-30.68-16.699-49.191-16.699
	c-44.628,0-80.809,36.18-80.809,80.809c0,44.627,36.18,80.807,80.809,80.807c18.512,0,35.566-6.228,49.191-16.698
	c13.625,10.471,30.679,16.698,49.191,16.698c44.629,0,80.809-36.18,80.809-80.807C327.344,78.373,291.164,42.192,246.535,42.192z"/>
<path fill="#ADCAEA" d="M115.192,154.554c0,1.192-0.292,2.152-1.477,2.183v0.018c-0.64,0.052,0.151,0.078-0.36,0.078
	c-4.018,0-6.858-0.883-8.521-2.649c-1.663-1.766-2.495-4.76-2.495-8.981v-14.39c0-2.278-0.334-3.973-0.999-5.086
	c-0.66-1.104-1.813-1.896-3.454-2.385c-0.833-0.33-1.424-1.132-1.424-2.081c0-0.936,0.573-1.734,1.385-2.075v-0.003
	c2.995-0.793,4.492-3.147,4.492-7.063v-15.35c0-3.812,0.856-6.564,2.57-8.253c1.715-1.688,4.53-2.533,8.445-2.533h0.36v0.003
	c1.227,0.008,1.557,1.002,1.557,2.23c0,1.229-0.33,1.54-1.557,1.547v0.027c-2.944,0.052-4.926,0.551-5.949,1.497
	c-1.023,0.946-1.534,2.777-1.534,5.488v15.65c0,1.765-0.232,3.391-0.693,4.874c-0.536,1.664-1.905,3.046-4.106,4.146
	c1.765,0.947,3.006,2.098,3.724,3.454c0.715,1.357,1.074,3.277,1.074,5.758v15.075c0,2.917,0.485,4.854,1.458,5.815
	c0.972,0.959,2.98,1.451,6.025,1.478v0.031C114.9,153.085,115.192,153.36,115.192,154.554L115.192,154.554z M279.518,154.554
	c0,1.192,0.955,2.152,2.141,2.183v0.018c0.641,0.052-0.152,0.078,0.36,0.078c4.019,0,6.858-0.883,8.521-2.649
	c1.664-1.766,2.495-4.76,2.495-8.981v-14.39c0-2.278,0.333-3.973,0.998-5.086c0.661-1.104,1.812-1.896,3.454-2.385
	c0.833-0.33,1.424-1.132,1.424-2.081c0-0.936-0.572-1.734-1.386-2.075v-0.003c-2.994-0.793-4.492-3.147-4.492-7.063v-15.35
	c0-3.812-0.856-6.564-2.571-8.253c-1.714-1.688-4.528-2.533-8.444-2.533h-0.36v0.003c-1.227,0.008-2.221,1.002-2.221,2.23
	c0,1.229,0.994,1.54,2.221,1.547v0.027c2.943,0.052,4.927,0.551,5.949,1.497c1.024,0.946,1.536,2.777,1.536,5.488v15.65
	c0,1.765,0.23,3.391,0.69,4.874c0.537,1.664,1.907,3.046,4.106,4.146c-1.766,0.947-3.006,2.098-3.724,3.454
	c-0.714,1.357-1.072,3.277-1.072,5.758v15.075c0,2.917-0.485,4.854-1.459,5.815c-0.973,0.959-2.98,1.451-6.026,1.478v0.031
	C280.473,153.085,279.518,153.36,279.518,154.554L279.518,154.554z"/>
<path fill="#FFFFFF" d="M276.048,105.663c0,2.345-0.751,4.32-2.251,5.927c-1.499,1.607-3.349,2.41-5.55,2.41
	c-0.9,0-1.78-0.158-2.64-0.476c-0.942-0.337-1.793-0.916-2.55-1.736v0.499h-0.015c-0.004,0.948-0.771,1.712-1.72,1.712
	c-0.947,0-1.716-0.765-1.719-1.712h-0.001V93.672c0-1.014,0.821-1.835,1.835-1.835c1.013,0,1.834,0.821,1.834,1.835v5.635
	c0.207-0.174,0.457-0.374,0.752-0.598c1.199-0.849,2.586-1.274,4.162-1.274c2.211,0,4.073,0.789,5.589,2.372
	C275.29,101.388,276.048,103.34,276.048,105.663L276.048,105.663z M272.179,105.694c0-1.3-0.436-2.39-1.306-3.271
	c-0.871-0.881-1.945-1.321-3.224-1.321c-1.341,0-2.432,0.439-3.271,1.314c-0.84,0.873-1.258,2.008-1.258,3.399
	c0,1.279,0.435,2.35,1.306,3.209c0.87,0.858,1.946,1.288,3.224,1.288c1.29,0,2.366-0.442,3.23-1.327
	C271.746,108.103,272.179,107.006,272.179,105.694L272.179,105.694z M251.625,97.488c-1.032,0-1.87,0.822-1.87,1.836v5.71
	c0,3.673-1.424,5.511-4.273,5.511c-1.526,0-2.53-0.516-3.008-1.55c-0.282-0.595-0.422-1.263-0.422-2.011
	c-0.021-0.225-0.033-0.875-0.033-1.949v-5.409c0.017-0.098,0.033-0.198,0.033-0.301c0-1.012-0.84-1.836-1.872-1.836
	c-1.034,0-1.872,0.822-1.872,1.836l0.001,0.003v5.708c0,1.648,0.014,2.671,0.046,3.071c0.096,1.157,0.355,2.135,0.784,2.933
	c0.48,0.899,1.234,1.618,2.263,2.157c1.027,0.538,2.174,0.806,3.438,0.806c1.909,0,3.377-0.559,4.402-1.673
	c0.187-0.205,0.442-0.515,0.766-0.935v0.711l-0.019,0.179c0,0.949,0.787,1.719,1.755,1.719s1.751-0.765,1.755-1.712h0.003V99.328
	C253.499,98.31,252.661,97.488,251.625,97.488L251.625,97.488z M232.724,110.093h-2.781v-15.85l-0.005-0.005l0.008-0.075
	c0-0.923-0.749-1.673-1.673-1.673h-4.8c-0.924,0-1.673,0.75-1.673,1.673c0,0.925,0.749,1.673,1.673,1.673v0.016h2.834v14.24h-2.834
	c-0.924,0-1.673,0.75-1.673,1.673c0,0.925,0.749,1.673,1.673,1.673h9.252c0.926,0,1.674-0.749,1.674-1.673
	C234.396,110.844,233.648,110.093,232.724,110.093L232.724,110.093z M214.448,102.32c0.666,0.694,2.188,0.694,2.905,0
	c0.719-0.694,0.719-1.819,0-2.514c-3.358-3.242-8.822-3.242-12.181,0c-3.356,3.244-3.356,8.52,0.002,11.763
	c1.679,1.622,3.884,2.432,6.09,2.432c2.205,0,4.41-0.812,6.091-2.432c0.718-0.695,0.718-1.819,0-2.515
	c-0.72-0.693-2.239-0.693-2.906,0c-1.784,1.857-4.687,1.857-6.472,0c-0.894-0.927-1.34-2.147-1.34-3.367
	c0-1.219,0.446-2.44,1.34-3.367C209.76,100.464,212.663,100.464,214.448,102.32z M141.39,111.458
	c-1.642-1.627-2.461-3.582-2.461-5.865c0-2.282,0.819-4.229,2.461-5.842c1.641-1.612,3.621-2.418,5.941-2.418
	c2.319,0,4.304,0.808,5.956,2.426c1.651,1.617,2.476,3.562,2.476,5.833c0,2.282-0.822,4.238-2.47,5.865
	c-1.645,1.628-3.634,2.441-5.962,2.441C145.011,113.899,143.03,113.086,141.39,111.458L141.39,111.458z M142.542,105.624
	c0,1.33,0.466,2.464,1.4,3.401c0.933,0.938,2.063,1.408,3.389,1.408c1.336,0,2.468-0.469,3.396-1.408
	c0.929-0.938,1.393-2.082,1.393-3.432c0-1.329-0.464-2.463-1.393-3.401c-0.928-0.938-2.06-1.406-3.396-1.406
	c-1.326,0-2.457,0.471-3.389,1.414C143.008,103.144,142.542,104.285,142.542,105.624L142.542,105.624z M185.025,103.903h8.569
	c-0.529-1.882-2.027-2.899-4.322-2.899C187.178,101.003,185.704,102.021,185.025,103.903z M176.315,93.758v18.299
	c0,0.949-0.76,1.719-1.698,1.719c-0.937,0-1.7-0.77-1.7-1.719v-0.003h-0.015v-0.365c-0.181,0.235-0.409,0.471-0.682,0.705
	c-1.173,1.004-2.654,1.505-4.444,1.505c-2.154,0-3.972-0.803-5.454-2.41c-1.481-1.606-2.222-3.583-2.222-5.926
	c0-2.335,0.743-4.289,2.229-5.865c1.486-1.576,3.332-2.364,5.536-2.364c0.809,0,1.567,0.112,2.276,0.338
	c0.849,0.277,1.708,0.789,2.578,1.535v-5.449c0-1.006,0.805-1.82,1.798-1.82C175.512,91.938,176.315,92.752,176.315,93.758
	L176.315,93.758z M172.843,105.624c0-1.361-0.416-2.473-1.244-3.333c-0.829-0.859-1.907-1.288-3.231-1.288
	c-1.254,0-2.308,0.444-3.163,1.335c-0.854,0.891-1.282,1.996-1.282,3.316c0,1.28,0.43,2.359,1.29,3.239
	c0.859,0.88,1.911,1.321,3.155,1.321c1.285,0,2.351-0.438,3.201-1.314C172.418,108.027,172.843,106.935,172.843,105.624
	L172.843,105.624z M130.981,102.219c0.661,0.695,2.166,0.695,2.877,0c0.711-0.695,0.711-1.82,0-2.513
	c-3.325-3.242-8.734-3.242-12.058,0c-3.323,3.242-3.323,8.518,0,11.761c1.663,1.622,3.844,2.432,6.028,2.432
	c2.184,0,4.367-0.81,6.03-2.432c0.711-0.694,0.711-1.82,0-2.513c-0.711-0.693-2.216-0.695-2.877,0c-1.767,1.856-4.641,1.856-6.407,0
	c-0.883-0.928-1.324-2.147-1.324-3.367c0-1.22,0.441-2.44,1.324-3.368C126.341,100.364,129.215,100.364,130.981,102.219
	L130.981,102.219z M196.387,111.562c-1.699,1.559-3.879,2.337-6.058,2.337l-0.785-0.002l-0.021,0.002
	c-2.436,0-4.444-0.775-6.025-2.326c-1.582-1.551-2.372-3.514-2.372-5.888c0-2.323,0.818-4.296,2.457-5.918
	c1.637-1.623,3.574-2.433,5.858-2.433c2.336,0,4.271,0.819,5.809,2.456c1.251,1.333,1.994,2.903,2.225,4.798l-0.014,0.039
	l0.014,0.151c0,1.188-0.94,2.152-2.098,2.152h-10.382c0.206,0.993,0.739,1.826,1.604,2.409c0.865,0.583,1.931,0.875,3.2,0.875
	l0.587-0.001c1.074-0.027,2.293-0.429,3.173-1.208l-0.002,0.003c0.685-0.72,2.038-0.72,2.776,0c0.739,0.719,0.739,1.886,0,2.606
	L196.387,111.562L196.387,111.562z M149.188,143.357c-1.641-1.629-2.46-3.582-2.46-5.867c0-2.281,0.819-4.229,2.46-5.84
	c1.642-1.612,3.621-2.419,5.941-2.419s4.304,0.809,5.955,2.425c1.651,1.618,2.477,3.562,2.477,5.834
	c0,2.282-0.823,4.237-2.469,5.865s-3.634,2.441-5.963,2.441C152.809,145.797,150.83,144.983,149.188,143.357L149.188,143.357z
	 M150.339,137.523c0,1.33,0.467,2.463,1.401,3.4c0.932,0.938,2.062,1.405,3.388,1.405c1.336,0,2.469-0.468,3.396-1.405
	s1.392-2.083,1.392-3.434c0-1.328-0.463-2.462-1.392-3.4c-0.928-0.937-2.06-1.404-3.396-1.404c-1.326,0-2.456,0.47-3.388,1.414
	C150.806,135.042,150.339,136.183,150.339,137.523L150.339,137.523z M213.294,125.882v18.3c0,0.948-0.761,1.718-1.7,1.718
	c-0.938,0-1.698-0.77-1.698-1.718v-0.003h-0.016v-0.365c-0.181,0.235-0.409,0.471-0.681,0.704c-1.175,1.004-2.656,1.506-4.444,1.506
	c-2.154,0-3.971-0.803-5.453-2.411c-1.482-1.605-2.224-3.582-2.224-5.927c0-2.333,0.744-4.289,2.23-5.865
	c1.485-1.576,3.331-2.363,5.536-2.363c0.81,0,1.567,0.113,2.276,0.339c0.849,0.275,1.708,0.787,2.578,1.533v-5.449
	c0.001-1.005,0.806-1.818,1.797-1.818C212.488,124.063,213.294,124.877,213.294,125.882L213.294,125.882z M209.819,137.749
	c0-1.362-0.415-2.472-1.243-3.332c-0.829-0.859-1.906-1.289-3.231-1.289c-1.255,0-2.309,0.446-3.162,1.338
	c-0.854,0.89-1.282,1.994-1.282,3.315c0,1.279,0.43,2.358,1.29,3.239c0.859,0.881,1.91,1.32,3.154,1.32
	c1.285,0,2.352-0.438,3.2-1.313C209.396,140.151,209.819,139.059,209.819,137.749L209.819,137.749z M192.99,141.892h-2.78V126.04
	l-0.005-0.005l0.008-0.074c0-0.924-0.749-1.672-1.675-1.672h-4.798c-0.925,0-1.673,0.749-1.673,1.672
	c0,0.925,0.749,1.674,1.673,1.674v0.014h2.832v14.242h-2.832c-0.925,0-1.673,0.75-1.673,1.673c0,0.924,0.749,1.674,1.673,1.674
	h9.252c0.926,0,1.673-0.751,1.673-1.674C194.664,142.641,193.915,141.892,192.99,141.892L192.99,141.892z M143.721,131.094
	c0-1.006-0.816-1.82-1.822-1.82c-0.789,0-1.455,0.507-1.709,1.209l-0.007,0.003l-3.749,10.489l-2.96-10.083l-0.008,0.001
	c-0.335-0.941-1.226-1.619-2.282-1.619s-1.947,0.678-2.282,1.619l-0.01-0.001l-2.959,10.083l-3.749-10.489l-0.009-0.003
	c-0.252-0.704-0.917-1.209-1.707-1.209c-1.006,0-1.822,0.815-1.822,1.82c0,0.252,0.051,0.49,0.143,0.708l-0.002,0.003l4.79,12.43h0
	c0.392,0.917,1.304,1.562,2.364,1.562c1.064,0,1.978-0.649,2.367-1.57l2.875-10.249l2.875,10.249c0.39,0.923,1.303,1.57,2.367,1.57
	c1.061,0,1.972-0.647,2.364-1.562h0l4.79-12.43l-0.003-0.003C143.669,131.585,143.721,131.346,143.721,131.094L143.721,131.094z
	 M179.954,130.999c0-0.913-0.642-1.721-1.772-1.721c-1.783,0-2.695,0.484-3.628,1.233c-1.046,0.844-1.872,2.061-2.3,3.112v-2.586
	h-0.005c-0.031-0.979-0.831-1.765-1.817-1.765c-0.986,0-1.788,0.787-1.818,1.765h-0.006v12.828l-0.011,0.103
	c0,1.009,0.82,1.829,1.829,1.829c0.987,0,1.789-0.787,1.822-1.766h0.006v-2.863c0-1.8,0.162-3.168,0.484-4.108
	c0.323-0.937,0.848-1.757,1.573-2.457c0.726-0.701,1.864-1.88,3.921-1.88l0.004-0.001
	C179.187,132.719,179.954,131.947,179.954,130.999L179.954,130.999z M227.237,143.357c-1.642-1.629-2.46-3.582-2.46-5.867
	c0-2.281,0.818-4.229,2.46-5.84c1.642-1.612,3.621-2.419,5.941-2.419s4.303,0.809,5.954,2.425c1.651,1.618,2.478,3.562,2.478,5.834
	c0,2.282-0.823,4.237-2.47,5.865c-1.646,1.628-3.635,2.441-5.962,2.441C230.858,145.797,228.879,144.983,227.237,143.357
	L227.237,143.357z M228.389,137.523c0,1.33,0.467,2.463,1.4,3.4c0.932,0.938,2.063,1.405,3.39,1.405
	c1.336,0,2.468-0.468,3.396-1.405c0.929-0.938,1.393-2.083,1.393-3.434c0-1.328-0.464-2.462-1.393-3.4
	c-0.928-0.937-2.06-1.404-3.396-1.404c-1.326,0-2.458,0.47-3.39,1.414C228.855,135.042,228.389,136.183,228.389,137.523
	L228.389,137.523z M257.341,130.999c0-0.913-0.644-1.721-1.773-1.721c-1.782,0-2.695,0.484-3.628,1.233
	c-1.047,0.844-1.871,2.061-2.299,3.112v-2.586h-0.006c-0.031-0.979-0.831-1.765-1.817-1.765c-0.985,0-1.787,0.787-1.817,1.765
	h-0.007v12.828l-0.01,0.103c0,1.009,0.819,1.829,1.829,1.829c0.987,0,1.788-0.787,1.822-1.766h0.006v-2.863
	c0-1.8,0.161-3.168,0.484-4.108c0.322-0.937,0.847-1.757,1.571-2.457c0.727-0.701,1.866-1.88,3.921-1.88l0.004-0.001
	C256.571,132.719,257.341,131.947,257.341,130.999L257.341,130.999z M260.667,146.587c0.669-0.669,1.759-0.662,2.438,0.015
	c0,0,1.256,1.34,3.398,1.34c5.043,0,4.726-4.948,4.726-4.948c-0.871,1.187-2.252,2.632-5.082,2.632
	c-2.205,0-4.051-0.789-5.537-2.364c-1.485-1.576-2.229-3.373-2.229-5.708c0-2.342,0.741-4.32,2.224-5.927
	c1.48-1.607,3.299-2.409,5.454-2.409c1.786,0,3.271,0.502,4.443,1.506c0.271,0.234,0.5,0.47,0.681,0.704v-0.365h0.016v-0.003
	c0-0.949,0.761-1.719,1.698-1.719c0.939,0,1.699,0.77,1.699,1.719v10.29c0,4.031-0.876,6.36-2.488,7.973
	c-1.374,1.375-3.807,1.974-5.599,1.974c-3.9,0-5.826-2.27-5.826-2.27C260.004,148.348,259.998,147.257,260.667,146.587
	L260.667,146.587z M269.848,134.216c-0.85-0.876-1.917-1.314-3.201-1.314c-1.243,0-2.296,0.441-3.155,1.321s-1.289,1.96-1.289,3.24
	c0,1.32,0.429,2.267,1.283,3.158c0.854,0.891,1.908,1.336,3.164,1.336c1.324,0,2.401-0.43,3.231-1.288
	c0.827-0.86,1.242-1.812,1.242-3.174C271.121,136.182,270.697,135.091,269.848,134.216L269.848,134.216z M219.97,141.405
	c-1.275,0-2.309,1.035-2.309,2.311c0,1.274,1.033,2.308,2.309,2.308c1.276,0,2.309-1.032,2.309-2.308
	C222.278,142.439,221.246,141.405,219.97,141.405z"/>
</svg>
