<?xml version="1.0" encoding="utf-8"?>
<!-- Generator: Adobe Illustrator 16.0.0, SVG Export Plug-In . SVG Version: 6.00 Build 0)  -->
<!DOCTYPE svg PUBLIC "-//W3C//DTD SVG 1.1//EN" "http://www.w3.org/Graphics/SVG/1.1/DTD/svg11.dtd">
<svg version="1.1" xmlns="http://www.w3.org/2000/svg" xmlns:xlink="http://www.w3.org/1999/xlink" x="0px" y="0px" width="404px"
	 height="193px" viewBox="0 0 404 193" enable-background="new 0 0 404 193" xml:space="preserve">
<g id="Layer_1">
	<g>
		<g>
			<path fill="#339933" d="M179.768,96.5c0,43.129-34.963,78.092-78.092,78.092S23.583,139.629,23.583,96.5
				c0-43.133,34.964-78.092,78.093-78.092S179.768,53.367,179.768,96.5z"/>
			<path fill="#B1DAAE" d="M62.715,128.154c0,1.164-0.284,2.1-1.438,2.125v0.02c-0.621,0.051,0.152,0.076-0.352,0.076
				c-3.914,0-6.681-0.857-8.303-2.582c-1.619-1.719-2.43-4.637-2.43-8.754v-14.023c0-2.217-0.326-3.869-0.974-4.957
				c-0.644-1.072-1.767-1.846-3.368-2.322c-0.809-0.32-1.386-1.104-1.386-2.029c0-0.91,0.557-1.693,1.351-2.018v-0.006
				c2.918-0.773,4.377-3.07,4.377-6.885V71.838c0-3.713,0.834-6.396,2.506-8.039c1.668-1.646,4.414-2.471,8.227-2.471h0.352l0,0
				c1.199,0.01,1.52,0.977,1.52,2.176s-0.32,1.5-1.52,1.51v0.025c-2.868,0.051-4.801,0.535-5.797,1.459
				c-0.996,0.92-1.494,2.705-1.494,5.35V87.1c0,1.719-0.225,3.305-0.676,4.748c-0.52,1.623-1.856,2.969-4.002,4.043
				c1.724,0.92,2.932,2.043,3.63,3.365c0.696,1.322,1.048,3.193,1.048,5.607v14.693c0,2.842,0.473,4.734,1.418,5.67
				c0.951,0.936,2.908,1.412,5.873,1.438v0.031C62.431,126.725,62.715,126.994,62.715,128.154z"/>
			<path fill="#B1DAAE" d="M142.074,126.695v-0.031c2.964-0.025,4.922-0.502,5.867-1.438c0.951-0.936,1.424-2.828,1.424-5.67
				v-14.693c0-2.414,0.35-4.285,1.047-5.607c0.701-1.322,1.906-2.441,3.63-3.365c-2.146-1.074-3.482-2.42-4.007-4.043
				c-0.447-1.443-0.67-3.029-0.67-4.748V71.848c0-2.645-0.498-4.43-1.495-5.35c-0.997-0.924-2.934-1.408-5.796-1.459v-0.025
				c-1.2-0.01-2.166-0.311-2.166-1.51s0.966-2.166,2.166-2.176l0,0h0.346c3.818,0,6.563,0.824,8.23,2.471
				c1.674,1.643,2.508,4.326,2.508,8.039v14.961c0,3.814,1.459,6.111,4.377,6.885v0.006c0.793,0.33,1.352,1.107,1.352,2.018
				c0,0.926-0.579,1.709-1.393,2.029c-1.596,0.477-2.72,1.25-3.365,2.322c-0.646,1.088-0.971,2.74-0.971,4.957v14.023
				c0,4.117-0.809,7.035-2.432,8.754c-1.621,1.725-4.387,2.582-8.307,2.582c-0.498,0,0.274-0.025-0.346-0.076v-0.014
				c-1.159-0.031-2.09-0.967-2.09-2.131C139.984,126.994,140.915,126.725,142.074,126.695z"/>
			<path fill="#FFFFFF" d="M91.1,89.18c2.268,0,4.205-0.793,5.812-2.381c1.602-1.586,2.404-3.486,2.404-5.713
				c0-2.217-0.803-4.109-2.415-5.686c-1.606-1.576-3.538-2.363-5.802-2.363c-2.262,0-4.193,0.783-5.79,2.354
				c-1.602,1.57-2.399,3.473-2.399,5.695c0,2.227,0.798,4.127,2.399,5.713C86.906,88.387,88.838,89.18,91.1,89.18z M87.795,77.775
				c0.91-0.916,2.009-1.377,3.305-1.377c1.303,0,2.406,0.457,3.311,1.371c0.904,0.916,1.357,2.02,1.357,3.316
				c0,1.316-0.453,2.43-1.357,3.344c-0.904,0.916-2.008,1.373-3.311,1.373c-1.296,0-2.395-0.457-3.305-1.373
				c-0.909-0.914-1.361-2.018-1.361-3.314C86.434,79.809,86.886,78.695,87.795,77.775z M130.681,76.611
				c2.237,0,3.696,0.99,4.214,2.826h-8.353C127.203,77.602,128.637,76.611,130.681,76.611z M136.334,105.295
				c-1.475-1.539-3.289-2.307-5.445-2.307c-1.535,0-2.888,0.41-4.057,1.24c-0.29,0.219-0.529,0.416-0.732,0.584v-5.49l0,0
				c0-0.992-0.799-1.789-1.785-1.789c-0.99,0-1.789,0.797-1.789,1.789v18.141l0,0c0.006,0.924,0.752,1.672,1.673,1.672
				c0.925,0,1.673-0.748,1.678-1.672h0.015v-0.488c0.738,0.797,1.566,1.361,2.486,1.693c0.834,0.309,1.693,0.461,2.572,0.461
				c2.146,0,3.945-0.781,5.41-2.348c1.459-1.566,2.191-3.488,2.191-5.775C138.551,108.742,137.813,106.842,136.334,105.295z
				 M133.512,114.244c-0.838,0.863-1.891,1.297-3.146,1.297c-1.246,0-2.298-0.418-3.143-1.256c-0.849-0.84-1.271-1.881-1.271-3.127
				c0-1.357,0.407-2.461,1.226-3.314c0.818-0.855,1.881-1.281,3.188-1.281c1.246,0,2.293,0.432,3.143,1.285
				c0.849,0.859,1.271,1.922,1.271,3.188C134.778,112.312,134.356,113.385,133.512,114.244z M115.926,104.828v12.635l0,0
				c-0.004,0.924-0.768,1.672-1.713,1.672c-0.94,0-1.709-0.752-1.709-1.678c0-0.061,0.011-0.117,0.016-0.172v-0.697
				c-0.31,0.412-0.559,0.711-0.747,0.914c-0.997,1.084-2.425,1.633-4.286,1.633c-1.23,0-2.349-0.264-3.35-0.787
				c-1.002-0.525-1.739-1.227-2.207-2.102c-0.417-0.781-0.672-1.732-0.763-2.861c-0.03-0.387-0.046-1.389-0.046-2.99v-5.561
				c0-0.006,0-0.006,0-0.006c0-0.986,0.818-1.789,1.825-1.789s1.825,0.803,1.825,1.789c0,0.102-0.016,0.197-0.03,0.295v5.271
				c0,1.043,0.005,1.678,0.03,1.902c0,0.727,0.137,1.377,0.412,1.957c0.463,1.006,1.443,1.51,2.928,1.51
				c2.776,0,4.17-1.789,4.17-5.369v-5.566l0,0c0-0.986,0.812-1.789,1.82-1.789C115.107,103.039,115.926,103.842,115.926,104.828z
				 M116.948,67.775c-0.966,0-1.749,0.793-1.749,1.773l0,0v5.312c-0.85-0.73-1.688-1.225-2.517-1.5
				c-0.687-0.217-1.429-0.324-2.217-0.324c-2.146,0-3.945,0.768-5.394,2.303c-1.449,1.535-2.172,3.441-2.172,5.715
				c0,2.283,0.717,4.209,2.166,5.775c1.443,1.566,3.213,2.35,5.312,2.35c1.744,0,3.188-0.488,4.332-1.465
				c0.265-0.229,0.488-0.457,0.666-0.686v0.355h0.016l0,0c0,0.926,0.742,1.678,1.652,1.678c0.915,0,1.657-0.752,1.657-1.678l0,0l0,0
				V69.549l0,0C118.702,68.568,117.92,67.775,116.948,67.775z M114.076,84.309c-0.829,0.854-1.866,1.281-3.122,1.281
				c-1.21,0-2.237-0.428-3.076-1.287c-0.833-0.859-1.256-1.91-1.256-3.156c0-1.291,0.417-2.365,1.251-3.234s1.861-1.301,3.081-1.301
				c1.291,0,2.344,0.416,3.151,1.256c0.804,0.838,1.211,1.922,1.211,3.248C115.316,82.393,114.904,83.455,114.076,84.309z
				 M96.662,116.953c0,0.9-0.727,1.633-1.627,1.633h-9.02c-0.899,0-1.631-0.732-1.631-1.633c0-0.898,0.731-1.631,1.631-1.631
				c0.021,0,2.762,0,2.762,0v-13.875h-2.762v-0.016c-0.899,0-1.631-0.732-1.631-1.631c0-0.9,0.731-1.633,1.631-1.633h4.678
				c0.9,0,1.633,0.732,1.633,1.633c0,0.025-0.006,0.045-0.011,0.07l0.005,0.006v15.445c0,0,2.689,0,2.715,0
				C95.936,115.322,96.662,116.055,96.662,116.953z M69.619,107.746c-0.869,0.904-1.307,2.096-1.307,3.285s0.438,2.373,1.307,3.279
				c1.739,1.809,4.566,1.809,6.305,0c0.656-0.676,2.136-0.676,2.838,0c0.701,0.676,0.701,1.773,0,2.449
				c-1.638,1.582-3.788,2.375-5.939,2.375c-2.15,0-4.295-0.793-5.933-2.375c-3.274-3.156-3.274-8.301,0-11.465
				c3.274-3.156,8.597-3.156,11.872,0c0.701,0.682,0.701,1.775,0,2.451c-0.702,0.676-2.182,0.676-2.838,0
				C74.186,105.936,71.358,105.936,69.619,107.746z M69.568,77.795c-0.863,0.906-1.291,2.096-1.291,3.285
				c0,1.184,0.428,2.375,1.291,3.279c1.719,1.811,4.521,1.811,6.244,0c0.641-0.676,2.109-0.676,2.801,0
				c0.697,0.676,0.697,1.773,0,2.451c-1.616,1.58-3.746,2.369-5.877,2.369c-2.125,0-4.25-0.789-5.872-2.369
				c-3.239-3.162-3.239-8.303,0-11.465c3.239-3.158,8.511-3.158,11.749,0c0.697,0.676,0.697,1.773,0,2.449
				c-0.691,0.678-2.16,0.678-2.801,0C74.089,75.986,71.287,75.986,69.568,77.795z M137.564,86.953c0.717-0.703,0.717-1.836,0-2.537
				c-0.723-0.703-2.039-0.703-2.71,0l0.005-0.006c-0.854,0.758-2.043,1.154-3.091,1.18c-0.04,0-0.534,0-0.575,0
				c-1.234,0-2.277-0.285-3.116-0.854c-0.844-0.57-1.367-1.379-1.565-2.35h10.117c1.129,0,2.044-0.936,2.044-2.096
				c0-0.051-0.011-0.102-0.011-0.146c0-0.016,0.011-0.025,0.011-0.035c-0.224-1.852-0.946-3.381-2.166-4.678
				c-1.5-1.596-3.386-2.395-5.663-2.395c-2.228,0-4.113,0.787-5.71,2.369c-1.597,1.58-2.396,3.502-2.396,5.77
				c0,2.314,0.773,4.227,2.314,5.736c1.54,1.514,3.498,2.268,5.871,2.268c0.011,0,0.016,0,0.021,0c0.162,0,0.752,0,0.768,0
				c2.125,0,4.245-0.758,5.902-2.279L137.564,86.953z"/>
		</g>
		<g>
			<path fill="#339933" d="M210.408,77.916c0.375-1.078,1.078-1.592,2.25-1.592h1.031c1.404,0,2.061,0.842,1.639,2.201
				l-10.73,33.131c-0.328,1.078-1.078,1.592-2.201,1.592h-1.078c-1.406,0-2.062-0.842-1.641-2.201L210.408,77.916z"/>
			<path fill="#339933" d="M232.57,79.979c0-1.266,0.654-1.969,1.92-1.969h9.936c5.998,0,10.309,3.094,10.309,8.576
				c0,3.092-1.5,5.764-4.029,7.123v0.094c3.607,1.076,5.342,4.451,5.342,7.824c0,6.654-5.295,9.654-11.48,9.654H234.49
				c-1.266,0-1.92-0.656-1.92-1.969V79.979z M244.473,91.6c2.623,0,4.076-1.875,4.076-4.264c0-2.391-1.406-4.125-4.217-4.125h-5.764
				V91.6H244.473z M245.035,106.08c3.092,0,4.826-2.016,4.826-4.828c0-2.764-1.781-4.779-4.826-4.779h-6.467v9.607H245.035z"/>
			<path fill="#339933" d="M261.807,79.979c0-1.266,0.656-1.969,1.922-1.969h8.996c3.281,0,4.92,0.281,6.326,0.891
				c3.375,1.406,5.576,4.592,5.576,9.092c0,3.936-2.061,7.684-5.529,9.09v0.094c0,0,0.422,0.516,1.078,1.734l5.482,10.027
				c0.797,1.359,0.188,2.344-1.359,2.344h-2.529c-1.078,0-1.781-0.422-2.297-1.359l-5.857-11.059h-5.811v10.449
				c0,1.312-0.656,1.969-1.922,1.969h-2.154c-1.266,0-1.922-0.656-1.922-1.969V79.979z M273.24,93.615
				c3.234,0,5.248-2.016,5.248-5.295c0-2.109-0.797-3.797-2.623-4.547c-0.797-0.375-1.828-0.562-3.609-0.562h-4.451v10.404H273.24z"
				/>
			<path fill="#339933" d="M298.447,79.604c0.375-1.078,1.078-1.594,2.203-1.594h3c1.123,0,1.873,0.516,2.201,1.594l10.402,29.428
				c0.469,1.359-0.141,2.25-1.592,2.25h-2.156c-1.125,0-1.875-0.516-2.203-1.594l-2.342-6.936h-11.668l-2.297,6.889
				c-0.328,1.125-1.078,1.641-2.203,1.641h-2.154c-1.453,0-2.062-0.891-1.594-2.25L298.447,79.604z M306.461,97.832l-2.951-8.904
				c-0.562-1.873-1.312-5.154-1.312-5.154h-0.094c0,0-0.75,3.281-1.312,5.154l-3,8.904H306.461z"/>
			<path fill="#339933" d="M319.391,105.752l1.031-1.5c0.75-1.031,1.547-1.078,2.719-0.422c1.078,0.75,3.467,2.438,6.748,2.438
				c3.092,0,4.967-1.547,4.967-3.797c0-6.326-15.512-5.014-15.512-15.369c0-5.857,4.875-9.654,11.199-9.654
				c3.938,0,7.17,1.5,8.576,2.531c1.031,0.75,1.172,1.641,0.609,2.672l-0.844,1.545c-0.703,1.359-1.688,1.172-2.67,0.656
				c-1.359-0.797-3.188-1.828-5.764-1.828c-3.094,0-5.062,1.5-5.062,3.75c0,6.232,15.512,4.639,15.512,15.229
				c0,5.389-4.031,9.842-11.012,9.842c-4.734,0-8.576-2.109-10.217-3.375C318.922,107.812,318.455,107.016,319.391,105.752z"/>
			<path fill="#339933" d="M346.568,79.979c0-1.266,0.654-1.969,1.92-1.969h2.156c1.266,0,1.922,0.703,1.922,1.969v29.334
				c0,1.312-0.656,1.969-1.922,1.969h-2.156c-1.266,0-1.92-0.656-1.92-1.969V79.979z"/>
			<path fill="#339933" d="M360.25,79.979c0-1.266,0.654-1.969,1.92-1.969h2.156c1.266,0,1.922,0.703,1.922,1.969v26.102h12.418
				c1.311,0,1.967,0.656,1.967,1.92v1.312c0,1.312-0.656,1.969-1.967,1.969H362.17c-1.266,0-1.92-0.656-1.92-1.969V79.979z"/>
		</g>
	</g>
</g>
<g id="Layer_2">
</g>
</svg>
