<svg xmlns="http://www.w3.org/2000/svg" width="394" height="246" viewBox="21.445 598.14 394 246" enable-background="new 21.445 598.14 394 246"><path fill="#007DC5" d="M292.461 599.14c-27.896 0-53.594 9.387-74.125 25.164-20.531-15.777-46.23-25.164-74.125-25.164-67.249 0-121.767 54.518-121.767 121.768 0 67.248 54.518 121.766 121.767 121.766 27.895 0 53.594-9.385 74.125-25.162 20.531 15.777 46.228 25.162 74.125 25.162 67.25 0 121.768-54.518 121.768-121.766 0-67.25-54.518-121.768-121.768-121.768z"/><path fill="#ADCAEA" d="M94.545 770.853c0 1.797-.439 3.244-2.225 3.289v.027c-.965 .078 .228 .117-.543 .117-6.054 0-10.334-1.33-12.839-3.992-2.506-2.66-3.76-7.172-3.76-13.533v-21.684c0-3.432-.503-5.986-1.504-7.664-.995-1.662-2.732-2.857-5.205-3.594-1.254-.496-2.146-1.705-2.146-3.134 0-1.411 .864-2.614 2.088-3.126v-.006c4.513-1.195 6.768-4.743 6.768-10.643v-23.131c0-5.744 1.291-9.89 3.874-12.435 2.584-2.544 6.826-3.817 12.725-3.817h.543v.004c1.849 .013 2.346 1.511 2.346 3.362 0 1.851-.497 2.32-2.346 2.331v.04c-4.436 .078-7.423 .83-8.965 2.255-1.542 1.426-2.312 4.186-2.312 8.271v23.582c0 2.66-.35 5.109-1.044 7.344-.807 2.508-2.871 4.591-6.187 6.247 2.66 1.427 4.53 3.161 5.611 5.204 1.078 2.045 1.619 4.938 1.619 8.676v22.715c0 4.396 .73 7.316 2.197 8.764 1.465 1.445 4.491 2.188 9.08 2.227v.047c1.785 .044 2.225 .46 2.225 2.257zM342.161 770.853c0 1.797 1.439 3.244 3.225 3.289v.027c.965 .078-.229 .117 .543 .117 6.055 0 10.334-1.33 12.84-3.992 2.508-2.66 3.76-7.172 3.76-13.533v-21.684c0-3.432 .502-5.986 1.504-7.664 .996-1.662 2.732-2.857 5.205-3.594 1.256-.496 2.146-1.705 2.146-3.134 0-1.411-.863-2.614-2.088-3.126v-.006c-4.512-1.195-6.768-4.743-6.768-10.643v-23.131c0-5.744-1.291-9.89-3.875-12.435-2.582-2.544-6.824-3.817-12.725-3.817h-.543v.004c-1.848 .013-3.346 1.511-3.346 3.362 0 1.851 1.498 2.32 3.346 2.331v.04c4.436 .078 7.424 .83 8.965 2.255 1.543 1.426 2.314 4.186 2.314 8.271v23.582c0 2.66 .348 5.109 1.041 7.344 .809 2.508 2.873 4.591 6.188 6.247-2.66 1.427-4.529 3.161-5.611 5.204-1.076 2.045-1.617 4.938-1.617 8.676v22.715c0 4.396-.732 7.316-2.197 8.764-1.467 1.445-4.492 2.188-9.082 2.227v.047c-1.786 .044-3.225 .46-3.225 2.257z"/><path fill="#fff" d="M336.932 697.182c0 3.533-1.131 6.509-3.391 8.931s-5.047 3.631-8.363 3.631c-1.357 0-2.684-.238-3.979-.717-1.42-.508-2.701-1.38-3.842-2.615v.752h-.021c-.006 1.428-1.162 2.58-2.592 2.58-1.428 0-2.586-1.152-2.59-2.58h-.002v-28.051c0-1.527 1.238-2.765 2.766-2.765 1.525 0 2.764 1.237 2.764 2.765v8.491c.311-.262 .688-.563 1.133-.901 1.807-1.279 3.896-1.92 6.271-1.92 3.332 0 6.139 1.189 8.422 3.574 2.282 2.383 3.424 5.325 3.424 8.825zM331.102 697.228c0-1.958-.656-3.6-1.967-4.927-1.312-1.327-2.932-1.991-4.857-1.991-2.021 0-3.664 .661-4.93 1.98-1.266 1.316-1.896 3.025-1.896 5.123 0 1.928 .656 3.541 1.967 4.836 1.311 1.293 2.932 1.941 4.859 1.941 1.943 0 3.564-.667 4.867-2 1.305-1.333 1.957-2.985 1.957-4.962zM300.131 684.863c-1.557 0-2.818 1.239-2.818 2.767v8.604c0 5.536-2.146 8.305-6.441 8.305-2.299 0-3.811-.777-4.531-2.336-.426-.896-.637-1.903-.637-3.03-.031-.339-.049-1.319-.049-2.938v-8.15c.025-.148 .049-.299 .049-.454 0-1.526-1.264-2.767-2.82-2.767-1.559 0-2.822 1.239-2.822 2.767l.002 .005v8.6c0 2.484 .021 4.026 .07 4.627 .143 1.744 .535 3.217 1.18 4.42 .725 1.356 1.861 2.439 3.41 3.25s3.277 1.215 5.182 1.215c2.877 0 5.088-.842 6.633-2.521 .281-.309 .668-.777 1.154-1.41v1.073l-.027 .269c0 1.43 1.186 2.59 2.645 2.59 1.457 0 2.637-1.152 2.643-2.58h.004v-19.534c-.004-1.533-1.266-2.772-2.827-2.772zM271.649 703.857h-4.191v-23.883l-.008-.008 .012-.112c0-1.392-1.129-2.522-2.521-2.522h-7.232c-1.393 0-2.521 1.131-2.521 2.522 0 1.394 1.129 2.521 2.521 2.521v.024h4.27v21.458h-4.27c-1.393 0-2.521 1.131-2.521 2.521 0 1.394 1.129 2.521 2.521 2.521h13.941c1.395 0 2.523-1.127 2.523-2.521-.003-1.39-1.131-2.521-2.524-2.521zM244.11 692.144c1.004 1.045 3.297 1.045 4.379 0 1.082-1.046 1.082-2.742 0-3.788-5.062-4.885-13.295-4.885-18.355 0-5.059 4.888-5.059 12.837 .002 17.724 2.529 2.443 5.852 3.664 9.176 3.664s6.646-1.222 9.178-3.664c1.082-1.047 1.082-2.741 0-3.789-1.084-1.045-3.373-1.045-4.379 0-2.688 2.799-7.062 2.799-9.752 0-1.346-1.397-2.018-3.235-2.018-5.073 0-1.837 .672-3.677 2.018-5.074 2.686-2.796 7.061-2.796 9.751 0zM134.021 705.914c-2.473-2.452-3.708-5.397-3.708-8.838 0-3.438 1.235-6.373 3.708-8.803 2.473-2.428 5.457-3.643 8.953-3.643 3.495 0 6.486 1.218 8.975 3.656 2.488 2.437 3.731 5.367 3.731 8.789 0 3.439-1.239 6.386-3.721 8.838-2.479 2.453-5.476 3.679-8.985 3.679-3.496 0-6.481-1.225-8.953-3.678zM135.757 697.123c0 2.004 .703 3.713 2.109 5.125 1.406 1.414 3.109 2.121 5.107 2.121 2.014 0 3.72-.707 5.118-2.121 1.399-1.412 2.099-3.137 2.099-5.172 0-2.002-.699-3.711-2.099-5.125-1.398-1.414-3.104-2.119-5.118-2.119-1.998 0-3.701 .709-5.107 2.131-1.407 1.423-2.109 3.142-2.109 5.16zM199.774 694.529h12.911c-.797-2.836-3.054-4.369-6.511-4.369-3.157 0-5.378 1.533-6.4 4.369zM186.649 679.242v27.574c0 1.43-1.145 2.59-2.559 2.59-1.412 0-2.561-1.16-2.561-2.59v-.003h-.023v-.55c-.273 .354-.616 .709-1.027 1.062-1.768 1.513-4 2.268-6.697 2.268-3.246 0-5.984-1.21-8.217-3.631-2.232-2.42-3.348-5.399-3.348-8.93 0-3.518 1.119-6.463 3.359-8.838 2.24-2.375 5.021-3.562 8.342-3.562 1.219 0 2.362 .169 3.43 .509 1.279 .417 2.574 1.188 3.885 2.312v-8.211c0-1.515 1.213-2.742 2.709-2.742s2.707 1.227 2.707 2.742zM181.417 697.123c0-2.051-.626-3.726-1.875-5.021s-2.873-1.942-4.868-1.942c-1.89 0-3.478 .67-4.767 2.013-1.287 1.342-1.931 3.007-1.931 4.997 0 1.929 .647 3.555 1.943 4.881 1.294 1.327 2.88 1.99 4.754 1.99 1.936 0 3.542-.66 4.823-1.979 1.281-1.318 1.921-2.964 1.921-4.939zM118.337 691.992c.996 1.047 3.264 1.047 4.336 0 1.071-1.047 1.071-2.742 0-3.787-5.01-4.885-13.161-4.885-18.17 0-5.008 4.886-5.008 12.836 0 17.723 2.505 2.443 5.793 3.664 9.084 3.664 3.29 0 6.58-1.221 9.086-3.664 1.071-1.046 1.071-2.742 0-3.787-1.072-1.045-3.34-1.047-4.336 0-2.662 2.796-6.993 2.797-9.654 0-1.331-1.398-1.996-3.236-1.996-5.074s.665-3.676 1.996-5.074c2.661-2.796 6.992-2.796 9.654-.001zM216.894 706.07c-2.559 2.35-5.844 3.522-9.129 3.522l-1.182-.003-.031 .003c-3.67 0-6.697-1.168-9.08-3.505-2.383-2.338-3.574-5.295-3.574-8.872 0-3.5 1.233-6.474 3.701-8.918 2.467-2.445 5.385-3.667 8.828-3.667 3.52 0 6.436 1.234 8.752 3.701 1.885 2.009 3.004 4.375 3.352 7.231l-.02 .058 .021 .229c0 1.791-1.416 3.242-3.161 3.242h-15.644c.31 1.496 1.113 2.751 2.418 3.631 1.303 .878 2.91 1.318 4.822 1.318l.885-.002c1.619-.041 3.455-.646 4.781-1.82l-.004 .005c1.032-1.085 3.071-1.085 4.184 0 1.113 1.084 1.113 2.842 0 3.927l.081-.08zM145.771 753.982c-2.472-2.455-3.707-5.398-3.707-8.84 0-3.438 1.235-6.373 3.707-8.801 2.474-2.43 5.456-3.645 8.952-3.645s6.485 1.219 8.974 3.654c2.487 2.438 3.731 5.367 3.731 8.791 0 3.439-1.24 6.385-3.72 8.838-2.479 2.453-5.476 3.678-8.985 3.678-3.495 .001-6.478-1.224-8.952-3.675zM147.507 745.191c0 2.004 .704 3.711 2.11 5.123 1.405 1.414 3.108 2.119 5.106 2.119 2.014 0 3.72-.705 5.118-2.119 1.398-1.412 2.098-3.137 2.098-5.172 0-2.002-.699-3.711-2.098-5.125-1.398-1.412-3.104-2.117-5.118-2.117-1.998 0-3.701 .709-5.106 2.131-1.407 1.42-2.11 3.14-2.11 5.16zM242.37 727.648v27.576c0 1.428-1.146 2.588-2.561 2.588-1.412 0-2.559-1.16-2.559-2.588v-.004h-.023v-.551c-.273 .354-.617 .709-1.027 1.062-1.77 1.512-4.002 2.268-6.697 2.268-3.246 0-5.984-1.209-8.217-3.633-2.233-2.42-3.35-5.398-3.35-8.93 0-3.516 1.121-6.463 3.36-8.838 2.238-2.375 5.02-3.562 8.342-3.562 1.221 0 2.363 .17 3.43 .51 1.279 .416 2.574 1.186 3.885 2.311v-8.211c.002-1.514 1.215-2.74 2.709-2.74 1.495 .002 2.708 1.228 2.708 2.742zM237.135 745.531c0-2.053-.625-3.725-1.873-5.021-1.25-1.295-2.873-1.943-4.869-1.943-1.891 0-3.479 .672-4.766 2.016-1.287 1.342-1.932 3.006-1.932 4.996 0 1.928 .648 3.555 1.943 4.881 1.295 1.328 2.879 1.99 4.754 1.99 1.936 0 3.543-.66 4.822-1.979 1.283-1.321 1.921-2.966 1.921-4.94zM211.776 751.773h-4.19v-23.885l-.008-.008 .012-.111c0-1.393-1.129-2.52-2.523-2.52h-7.231c-1.394 0-2.521 1.129-2.521 2.52 0 1.393 1.129 2.521 2.521 2.521v.021h4.268v21.461h-4.268c-1.394 0-2.521 1.129-2.521 2.521s1.129 2.521 2.521 2.521h13.942c1.394 0 2.521-1.131 2.521-2.521-.001-1.391-1.13-2.52-2.523-2.52zM137.533 735.503c0-1.516-1.23-2.744-2.745-2.744-1.189 0-2.193 .764-2.575 1.822l-.011 .004-5.649 15.807-4.46-15.195-.013 .002c-.505-1.418-1.847-2.439-3.438-2.439-1.59 0-2.933 1.021-3.439 2.439l-.015-.002-4.46 15.195-5.649-15.807-.013-.004c-.38-1.061-1.383-1.822-2.573-1.822-1.515 0-2.745 1.229-2.745 2.744 0 .379 .077 .738 .216 1.066l-.003 .004 7.217 18.73h.001c.591 1.383 1.965 2.355 3.562 2.355 1.604 0 2.98-.979 3.567-2.367l4.332-15.443 4.332 15.443c.587 1.391 1.964 2.367 3.567 2.367 1.598 0 2.972-.975 3.562-2.355h.001l7.217-18.73-.004-.004c.14-.327 .218-.687 .218-1.066zM192.132 735.359c0-1.375-.967-2.592-2.67-2.592-2.687 0-4.061 .729-5.467 1.859-1.576 1.27-2.82 3.104-3.465 4.689v-3.896h-.008c-.047-1.475-1.252-2.66-2.738-2.66s-2.693 1.186-2.739 2.66h-.009v19.33l-.016 .154c0 1.521 1.236 2.756 2.756 2.756 1.487 0 2.695-1.186 2.745-2.66h.009v-4.316c0-2.711 .244-4.773 .73-6.189 .486-1.412 1.277-2.648 2.37-3.703 1.093-1.057 2.809-2.832 5.908-2.832l.006-.002c1.431-.006 2.588-1.168 2.588-2.598zM263.381 753.982c-2.473-2.455-3.707-5.398-3.707-8.84 0-3.438 1.234-6.373 3.707-8.801 2.475-2.43 5.457-3.645 8.953-3.645s6.484 1.219 8.973 3.654c2.488 2.438 3.732 5.367 3.732 8.791 0 3.439-1.24 6.385-3.721 8.838-2.479 2.453-5.477 3.678-8.984 3.678-3.496 .001-6.478-1.224-8.953-3.675zM265.116 745.191c0 2.004 .705 3.711 2.111 5.123 1.404 1.414 3.109 2.119 5.107 2.119 2.014 0 3.719-.705 5.117-2.119 1.398-1.412 2.098-3.137 2.098-5.172 0-2.002-.699-3.711-2.098-5.125-1.398-1.412-3.104-2.117-5.117-2.117-1.998 0-3.703 .709-5.107 2.131-1.406 1.42-2.111 3.14-2.111 5.16zM308.743 735.359c0-1.375-.969-2.592-2.672-2.592-2.686 0-4.061 .729-5.467 1.859-1.576 1.27-2.82 3.104-3.463 4.689v-3.896h-.01c-.047-1.475-1.252-2.66-2.738-2.66s-2.693 1.186-2.738 2.66h-.01v19.33l-.016 .154c0 1.521 1.234 2.756 2.756 2.756 1.488 0 2.695-1.186 2.746-2.66h.01v-4.316c0-2.711 .242-4.773 .729-6.189 .486-1.412 1.277-2.648 2.369-3.703 1.094-1.057 2.811-2.832 5.908-2.832l.006-.002c1.431-.006 2.59-1.168 2.59-2.598zM313.756 758.849c1.008-1.008 2.65-.998 3.672 .021 0 0 1.893 2.02 5.121 2.02 7.6 0 7.121-7.457 7.121-7.457-1.312 1.789-3.393 3.965-7.658 3.965-3.322 0-6.104-1.188-8.344-3.561-2.238-2.375-3.359-5.084-3.359-8.602 0-3.529 1.117-6.51 3.35-8.93 2.232-2.422 4.971-3.631 8.219-3.631 2.693 0 4.928 .756 6.695 2.268 .41 .355 .754 .709 1.027 1.062v-.551h.023v-.004c0-1.43 1.146-2.59 2.559-2.59 1.416 0 2.561 1.16 2.561 2.59v15.506c0 6.074-1.32 9.584-3.75 12.014-2.07 2.072-5.736 2.973-8.436 2.973-5.877 0-8.779-3.42-8.779-3.42-1.022-1.021-1.031-2.665-.022-3.673zM327.59 740.207c-1.281-1.32-2.889-1.98-4.824-1.98-1.873 0-3.459 .664-4.754 1.99s-1.943 2.953-1.943 4.883c0 1.99 .645 3.416 1.934 4.758 1.287 1.342 2.875 2.014 4.766 2.014 1.996 0 3.619-.648 4.869-1.941 1.248-1.297 1.873-2.732 1.873-4.783-.003-1.979-.641-3.623-1.921-4.941zM252.43 751.041c-1.922 0-3.479 1.559-3.479 3.48s1.557 3.479 3.479 3.479c1.924 0 3.479-1.557 3.479-3.479s-1.555-3.48-3.479-3.48z"/></svg>