<?xml version="1.0" encoding="UTF-8" standalone="no"?>
<!-- Generator: Adobe Illustrator 15.0.2, SVG Export Plug-In . SVG Version: 6.00 Build 0)  -->

<svg
   xmlns:dc="http://purl.org/dc/elements/1.1/"
   xmlns:cc="http://creativecommons.org/ns#"
   xmlns:rdf="http://www.w3.org/1999/02/22-rdf-syntax-ns#"
   xmlns:svg="http://www.w3.org/2000/svg"
   xmlns="http://www.w3.org/2000/svg"
   xmlns:xlink="http://www.w3.org/1999/xlink"
   xmlns:sodipodi="http://sodipodi.sourceforge.net/DTD/sodipodi-0.dtd"
   xmlns:inkscape="http://www.inkscape.org/namespaces/inkscape"
   version="1.1"
   id="Layer_1"
   x="0px"
   y="0px"
   width="394px"
   height="246px"
   viewBox="0 0 394 246"
   enable-background="new 0 0 394 246"
   xml:space="preserve"
   inkscape:version="0.48.3.1 r9886"
   sodipodi:docname="logo.svg"
   inkscape:export-filename="/home/everton/codeclub/logo.png"
   inkscape:export-xdpi="144.86624"
   inkscape:export-ydpi="144.86624"><metadata
   id="metadata13"><rdf:RDF><cc:Work
       rdf:about=""><dc:format>image/svg+xml</dc:format><dc:type
         rdf:resource="http://purl.org/dc/dcmitype/StillImage" /></cc:Work></rdf:RDF></metadata><defs
   id="defs11"><use
     transform="scale(10.5)"
     xlink:href="#star"
     id="star5" /><use
     transform="scale(15)"
     xlink:href="#star"
     id="star4" /><use
     transform="scale(21)"
     xlink:href="#star"
     id="star3" /><use
     transform="scale(26.25)"
     xlink:href="#star"
     id="star2" /><use
     transform="scale(31.5)"
     xlink:href="#star"
     id="star1" /><g
     id="star"
     fill="#fff"><g
       id="c"><path
         transform="rotate(18 0,-1)"
         d="M 0,-1 v 1 h .5"
         id="t" /><use
         id="use3231"
         transform="scale(-1,1)"
         xlink:href="#t" /></g><use
       id="use3233"
       transform="rotate(72)"
       xlink:href="#c" /><use
       id="use3235"
       transform="rotate(-72)"
       xlink:href="#c" /><use
       id="use3237"
       transform="rotate(144)"
       xlink:href="#c" /><use
       id="use3239"
       transform="rotate(-144)"
       xlink:href="#c" /></g><path
     d="M -15.75,-22 C -15.75,-15 -9,-11.5 1,-11.5 C 11,-11.5 15.74,-14.75 15.75,-19.25 C 15.75,-33.5 -31,-24.5 -30.75,-49.5 C -30.5,-71 -6,-70 3,-70 C 12,-70 29,-66 28.75,-48.75 L 13.5,-48.75 C 13.5,-56.25 6.5,-59 -1.5,-59 C -9.25,-59 -14.75,-57.75 -14.75,-50.5 C -15,-38.75 31.5,-46.5 31.5,-21.75 C 31.5,-3.5 13.5,0 0,0 C -11.5,0 -31.55,-4.5 -31.5,-22 z"
     id="S" /><g
     id="R"><use
       id="use3223"
       xlink:href="#P" /><path
       id="path3225"
       d="M 28,0 c 0,-10 0,-32 -15,-32 h -19 c 22,0 22,22 22,32" /></g><path
     d="M -31.5,0 h 13 v -26 h 28 a 22 22 0 0 0 0,-44 h -40 z M -18.5,-39 h 27 a 9 9 0 0 0 0,-18 h -27 z"
     id="P"
     fill-rule="evenodd" /><path
     d="M 0,0 a 31.5 35 0 0 0 0,-70 a 31.5 35 0 0 0 0,70 M 0,-13 a 18.5 22 0 0 0 0,-44 a 18.5 22 0 0 0 0,44"
     id="O"
     fill-rule="evenodd" /><path
     d="M -31.5,0 h 12 v -48 l 14,48 h 11 l 14,-48 V 0 h 12 V -70 h -17.5 l -14,48 l -14,-48 H -31.5 z"
     id="M" /><g
     id="G"><clipPath
       id="gcut"><path
         id="path3211"
         d="M -31.5,0 v -70 h 63 v 70 z M 0,-47 v 12 h 31.5 v -12 z" /></clipPath><use
       id="use3213"
       clip-path="url(#gcut)"
       xlink:href="#O" /><rect
       id="rect3215"
       height="10"
       width="26.5"
       y="-35"
       x="5" /><rect
       id="rect3217"
       height="35"
       width="10"
       y="-35"
       x="21.5" /></g><path
     d="M -26.25,0 h 52.5 v -12 h -40.5 v -16 h 33 v -12 h -33 v -11 H 25 v -12 H -26.25 z"
     id="e" /><path
     transform="translate(-31.5)"
     d="M 0,0 h 63 v -13 H 12 v -18 h 40 v -12 h -40 v -14 H 60 v -13 H 0 z"
     id="E" /><path
     d="M -31.5,0 h 33 a 30 30 0 0 0 30,-30 v -10 a 30 30 0 0 0 -30,-30 H -31.5 z M -18.5,-13 h 19 a 19 19 0 0 0 19,-19 v -6 a 19 19 0 0 0 -19,-19 H -18.5 z"
     id="D"
     fill-rule="evenodd" /><clipPath
     id="band"><circle
       sodipodi:ry="735"
       sodipodi:rx="735"
       sodipodi:cy="0"
       sodipodi:cx="0"
       cy="0"
       cx="0"
       r="735"
       id="circle4181" /></clipPath><clipPath
     id="gcut-2"><path
       inkscape:connector-curvature="0"
       d="m -31.5,0 v -70 h 63 V 0 z M 0,-47 v 12 h 31.5 v -12 z"
       id="path4139" /></clipPath><clipPath
     clipPathUnits="userSpaceOnUse"
     id="clipPath4483"><path
       style="fill:#007dc5;display:inline"
       inkscape:connector-curvature="0"
       id="path4485"
       d="m 343.73567,4.32572 c -27.896,0 -53.594,9.388 -74.125,25.164 -20.532,-15.776 -46.231,-25.164 -74.126,-25.164 -67.249,0 -121.767,54.519001 -121.767,121.769 0,67.248 54.518,121.766 121.767,121.766 27.895,0 53.594,-9.385 74.125,-25.162 20.532,15.777 46.229,25.162 74.125,25.162 67.25,0 121.768,-54.518 121.768,-121.766 0,-67.249999 -54.517,-121.769 -121.767,-121.769 z" /></clipPath></defs><sodipodi:namedview
   pagecolor="#ffffff"
   bordercolor="#666666"
   borderopacity="1"
   objecttolerance="10"
   gridtolerance="10"
   guidetolerance="10"
   inkscape:pageopacity="0"
   inkscape:pageshadow="2"
   inkscape:window-width="1366"
   inkscape:window-height="721"
   id="namedview9"
   showgrid="false"
   inkscape:zoom="0.4796748"
   inkscape:cx="-112.06356"
   inkscape:cy="278.31356"
   inkscape:window-x="-3"
   inkscape:window-y="-3"
   inkscape:window-maximized="1"
   inkscape:current-layer="layer1" />



<g
   inkscape:groupmode="layer"
   id="layer1"
   inkscape:label="brazil"
   style="opacity:1"><g
     id="g4457"
     clip-path="url(#clipPath4483)"
     transform="translate(-72,-2)"><g
       id="g4478"
       transform="translate(-168,0)"><rect
         style="fill:#008000;fill-opacity:1;stroke:#d40000;stroke-width:0;stroke-miterlimit:4;stroke-opacity:1;stroke-dasharray:none"
         id="rect4416"
         width="673.37286"
         height="253.96228"
         x="0.33474731"
         y="2.1841125" /><path
         style="fill:#fedf00"
         inkscape:connector-curvature="0"
         d="m 6.3822,127.4553 182.8,116.72805 182.8,-116.72805 -182.8,-116.727666 z"
         id="path4176" /></g><circle
       id="circle4178"
       r="735"
       transform="matrix(0.10487694,0,0,0.10487694,43.1822,131.4553)"
       cx="0"
       cy="0"
       sodipodi:cx="0"
       sodipodi:cy="0"
       sodipodi:rx="735"
       sodipodi:ry="735"
       style="fill:#002776"
       d="M 735,0 C 735,405.92929 405.92929,735 0,735 -405.92929,735 -735,405.92929 -735,0 c 0,-405.92929 329.07071,-735 735,-735 405.92929,0 735,329.07071 735,735 z" /></g></g><g
   inkscape:groupmode="layer"
   id="layer2"
   inkscape:label="cc"
   style="display:inline"><path
     style="fill:#adcaea"
     inkscape:connector-curvature="0"
     d="m 83.51358,175.55667 c 0,1.797 -0.439,3.243 -2.225,3.288 v 0.027 c -0.965,0.078 0.228,0.117 -0.543,0.117 -6.054,0 -10.334,-1.33 -12.839,-3.992 -2.506,-2.66 -3.76,-7.172 -3.76,-13.533 v -21.684 c 0,-3.433 -0.503,-5.986 -1.504,-7.664 -0.995,-1.662 -2.732,-2.857 -5.205,-3.594 -1.254,-0.496 -2.146,-1.705 -2.146,-3.135 0,-1.41 0.864,-2.613 2.088,-3.126 v -0.006 c 4.513,-1.194 6.768,-4.742 6.768,-10.643 V 88.482669 c 0,-5.744 1.291,-9.890999 3.874,-12.435999 2.584,-2.544001 6.826,-3.816001 12.725,-3.816001 h 0.543 v 0.004 c 1.849,0.013 2.346,1.511 2.346,3.361 0,1.852001 -0.497,2.320001 -2.346,2.331001 v 0.04 c -4.436,0.078 -7.423,0.83 -8.965,2.256 -1.542,1.426 -2.312,4.184999 -2.312,8.269999 v 23.582001 c 0,2.66 -0.35,5.109 -1.044,7.344 -0.807,2.508 -2.871,4.591 -6.187,6.247 2.66,1.427 4.53,3.161 5.611,5.204 1.078,2.045 1.619,4.938 1.619,8.676 v 22.716 c 0,4.396 0.73,7.315 2.197,8.764 1.465,1.445 4.491,2.188 9.08,2.227 v 0.047 c 1.785,0.043 2.225,0.459 2.225,2.257 l 0,0 z m 247.616,0 c 0,1.797 1.439,3.243 3.225,3.288 v 0.027 c 0.965,0.078 -0.229,0.117 0.543,0.117 6.057,0 10.334,-1.33 12.84,-3.992 2.51,-2.66 3.762,-7.172 3.762,-13.533 v -21.684 c 0,-3.433 0.502,-5.986 1.504,-7.664 0.996,-1.662 2.73,-2.857 5.205,-3.594 1.256,-0.496 2.145,-1.705 2.145,-3.135 0,-1.41 -0.861,-2.613 -2.088,-3.126 v -0.006 c -4.512,-1.194 -6.768,-4.742 -6.768,-10.643 V 88.482669 c 0,-5.744 -1.291,-9.890999 -3.875,-12.435999 -2.582,-2.544001 -6.824,-3.816001 -12.725,-3.816001 h -0.543 v 0.004 c -1.848,0.013 -3.346,1.511 -3.346,3.361 0,1.852001 1.498,2.320001 3.346,2.331001 v 0.04 c 4.436,0.078 7.424,0.83 8.965,2.256 1.543,1.426 2.314,4.186 2.314,8.271 v 23.582 c 0,2.66 0.348,5.109 1.041,7.344 0.809,2.508 2.873,4.591 6.188,6.247 -2.66,1.427 -4.529,3.161 -5.611,5.204 -1.076,2.045 -1.617,4.938 -1.617,8.676 v 22.716 c 0,4.396 -0.732,7.315 -2.197,8.764 -1.467,1.445 -4.492,2.188 -9.082,2.227 v 0.047 c -1.787,0.042 -3.226,0.458 -3.226,2.256 l 0,0 z"
     id="path5" /><text
     xml:space="preserve"
     style="font-size:72px;font-style:normal;font-weight:normal;line-height:125%;letter-spacing:0px;word-spacing:0px;fill:#000000;fill-opacity:1;stroke:none;font-family:Sans"
     x="205.02626"
     y="106.23729"
     id="text4487"
     sodipodi:linespacing="125%"><tspan
       sodipodi:role="line"
       id="tspan4489"
       x="205.02626"
       y="106.23729"
       style="font-size:48px;text-align:center;text-anchor:middle;fill:#ffffff">codeclub</tspan><tspan
       sodipodi:role="line"
       x="205.02626"
       y="166.23729"
       id="tspan4491"
       style="font-size:48px;text-align:center;text-anchor:middle;fill:#ffffff">brasil</tspan></text>
</g><g
   inkscape:groupmode="layer"
   id="layer3"
   inkscape:label="mask"
   style="display:inline" /></svg>